<?xml version="1.0" encoding="UTF-8"?>
<!DOCTYPE svg PUBLIC "-//W3C//DTD SVG 1.1//EN" "http://www.w3.org/Graphics/SVG/1.1/DTD/svg11.dtd">
<svg xmlns="http://www.w3.org/2000/svg" version="1.1" width="600px" height="600px" style="shape-rendering:geometricPrecision; text-rendering:geometricPrecision; image-rendering:optimizeQuality; fill-rule:evenodd; clip-rule:evenodd" xmlns:xlink="http://www.w3.org/1999/xlink">
<g><path style="opacity:0.843" fill="#635b5a" d="M 282.5,132.5 C 279.781,133.913 276.781,134.58 273.5,134.5C 276.219,133.087 279.219,132.42 282.5,132.5 Z"/></g>
<g><path style="opacity:1" fill="#232d5f" d="M 319.5,132.5 C 322.544,134.011 325.878,134.678 329.5,134.5C 330.167,134.5 330.833,134.5 331.5,134.5C 337.259,137.722 343.592,139.389 350.5,139.5C 351.609,139.557 352.609,139.89 353.5,140.5C 357.1,143.771 361.434,145.438 366.5,145.5C 376.979,149.568 386.645,154.901 395.5,161.5C 394.022,161.238 392.689,161.571 391.5,162.5C 393.991,163.541 393.991,164.374 391.5,165C 392.91,165.368 393.91,166.201 394.5,167.5C 393.691,169.071 393.357,170.738 393.5,172.5C 392.167,172.5 390.833,172.5 389.5,172.5C 389.366,174.292 389.699,175.958 390.5,177.5C 384.998,173.915 379.331,170.581 373.5,167.5C 370.506,165 367.173,163 363.5,161.5C 361.883,160.962 360.216,160.629 358.5,160.5C 356.383,158.345 353.716,157.345 350.5,157.5C 349.713,155.896 348.38,155.229 346.5,155.5C 342.216,153.196 337.55,151.696 332.5,151C 315.107,147.177 297.774,146.677 280.5,149.5C 279.833,149.5 279.167,149.5 278.5,149.5C 274.24,150.585 269.906,151.252 265.5,151.5C 262.482,151.665 259.482,151.498 256.5,151C 255.328,146.404 253.828,146.904 252,152.5C 247.353,150.681 246.52,151.681 249.5,155.5C 247.311,156.173 245.311,157.173 243.5,158.5C 242.833,157.167 242.167,155.833 241.5,154.5C 240.833,154.833 240.167,155.167 239.5,155.5C 238.026,152.677 237.692,149.844 238.5,147C 237.584,146.722 236.918,146.222 236.5,145.5C 240.502,145.193 244.335,144.193 248,142.5C 250.733,144.428 251.9,143.761 251.5,140.5C 257.361,140.043 262.694,138.377 267.5,135.5C 269.265,134.539 271.265,134.205 273.5,134.5C 276.781,134.58 279.781,133.913 282.5,132.5C 294.931,131.18 307.265,131.18 319.5,132.5 Z"/></g>
<g><path style="opacity:0.843" fill="#60585a" d="M 319.5,132.5 C 323.122,132.322 326.456,132.989 329.5,134.5C 325.878,134.678 322.544,134.011 319.5,132.5 Z"/></g>
<g><path style="opacity:1" fill="#5f515c" d="M 331.5,134.5 C 338.086,135.591 344.42,137.258 350.5,139.5C 343.592,139.389 337.259,137.722 331.5,134.5 Z"/></g>
<g><path style="opacity:1" fill="#454360" d="M 267.5,135.5 C 262.694,138.377 257.361,140.043 251.5,140.5C 251.9,143.761 250.733,144.428 248,142.5C 244.335,144.193 240.502,145.193 236.5,145.5C 246.252,140.813 256.586,137.48 267.5,135.5 Z"/></g>
<g><path style="opacity:1" fill="#5c4d5b" d="M 353.5,140.5 C 358.132,141.596 362.466,143.263 366.5,145.5C 361.434,145.438 357.1,143.771 353.5,140.5 Z"/></g>
<g><path style="opacity:1" fill="#fdf07c" d="M 278.5,149.5 C 279.167,149.5 279.833,149.5 280.5,149.5C 302.875,147.968 324.875,149.968 346.5,155.5C 348.38,155.229 349.713,155.896 350.5,157.5C 317.167,157.5 283.833,157.5 250.5,157.5C 253.452,155.59 256.786,154.59 260.5,154.5C 266.952,154.057 272.952,152.39 278.5,149.5 Z"/></g>
<g><path style="opacity:1" fill="#d1cc93" d="M 346.5,155.5 C 324.875,149.968 302.875,147.968 280.5,149.5C 297.774,146.677 315.107,147.177 332.5,151C 337.55,151.696 342.216,153.196 346.5,155.5 Z"/></g>
<g><path style="opacity:1" fill="#e0da95" d="M 278.5,149.5 C 272.952,152.39 266.952,154.057 260.5,154.5C 261.913,153.065 263.58,152.065 265.5,151.5C 269.906,151.252 274.24,150.585 278.5,149.5 Z"/></g>
<g><path style="opacity:1" fill="#fdc522" d="M 250.5,157.5 C 283.833,157.5 317.167,157.5 350.5,157.5C 353.716,157.345 356.383,158.345 358.5,160.5C 358.414,161.496 358.748,162.329 359.5,163C 356.833,163.667 356.833,164.333 359.5,165C 358.167,165.667 358.167,166.333 359.5,167C 357.615,168.75 355.282,169.583 352.5,169.5C 310.5,169.5 268.5,169.5 226.5,169.5C 226.5,169.167 226.5,168.833 226.5,168.5C 233.998,163.751 241.998,160.085 250.5,157.5 Z"/></g>
<g><path style="opacity:1" fill="#22295d" d="M 395.5,161.5 C 403.471,166.326 410.471,172.326 416.5,179.5C 417.167,180.833 418.167,181.833 419.5,182.5C 434.809,196.816 446.142,213.816 453.5,233.5C 451.501,234.857 450.335,234.19 450,231.5C 449.333,232.833 448.667,232.833 448,231.5C 447.365,232.966 446.531,234.3 445.5,235.5C 446.035,237.271 446.869,237.604 448,236.5C 449.543,238.089 449.543,239.423 448,240.5C 444.664,237.803 443.33,234.469 444,230.5C 441.891,233.28 440.058,233.113 438.5,230C 438.833,229.667 439.167,229.333 439.5,229C 437.996,227.509 437.163,225.676 437,223.5C 436.667,224.5 436.333,225.5 436,226.5C 434.292,223.619 432.792,220.619 431.5,217.5C 430.304,217.846 430.304,218.346 431.5,219C 430.552,219.483 429.552,219.649 428.5,219.5C 426.549,216.214 424.215,213.214 421.5,210.5C 418.893,205.626 415.56,201.292 411.5,197.5C 408.167,193.833 404.833,190.167 401.5,186.5C 400.089,184.086 398.089,182.419 395.5,181.5C 393.611,180.396 391.945,179.063 390.5,177.5C 389.699,175.958 389.366,174.292 389.5,172.5C 390.833,172.5 392.167,172.5 393.5,172.5C 393.357,170.738 393.691,169.071 394.5,167.5C 393.91,166.201 392.91,165.368 391.5,165C 393.991,164.374 393.991,163.541 391.5,162.5C 392.689,161.571 394.022,161.238 395.5,161.5 Z"/></g>
<g><path style="opacity:1" fill="#d2b754" d="M 363.5,161.5 C 367.173,163 370.506,165 373.5,167.5C 369.19,166.948 365.857,164.948 363.5,161.5 Z"/></g>
<g><path style="opacity:1" fill="#fbe76a" d="M 226.5,169.5 C 268.5,169.5 310.5,169.5 352.5,169.5C 353.694,170.272 354.694,171.272 355.5,172.5C 354.078,172.291 352.745,171.791 351.5,171C 309.665,170.833 267.998,170.333 226.5,169.5 Z"/></g>
<g><path style="opacity:1" fill="#fcd844" d="M 358.5,160.5 C 360.216,160.629 361.883,160.962 363.5,161.5C 365.857,164.948 369.19,166.948 373.5,167.5C 379.331,170.581 384.998,173.915 390.5,177.5C 391.945,179.063 393.611,180.396 395.5,181.5C 396.833,183.167 398.167,184.833 399.5,186.5C 391.826,186.334 384.159,186.5 376.5,187C 371.972,189.824 371.305,193.49 374.5,198C 386.909,198.812 399.242,198.645 411.5,197.5C 415.56,201.292 418.893,205.626 421.5,210.5C 410.007,211.331 398.341,211.831 386.5,212C 383.335,214.114 382.669,216.947 384.5,220.5C 385.287,222.104 386.62,222.771 388.5,222.5C 402.402,223.183 416.402,223.849 430.5,224.5C 434.202,229.236 436.868,234.57 438.5,240.5C 422.008,241.497 405.342,241.83 388.5,241.5C 387.416,238.996 386.083,236.663 384.5,234.5C 383.921,231.669 382.588,229.336 380.5,227.5C 376.917,221.581 372.584,216.248 367.5,211.5C 355.95,200.725 342.617,193.059 327.5,188.5C 325.981,187.59 324.315,186.757 322.5,186C 332.932,185.952 343.265,185.286 353.5,184C 357.716,180.538 358.383,176.705 355.5,172.5C 354.694,171.272 353.694,170.272 352.5,169.5C 355.282,169.583 357.615,168.75 359.5,167C 358.167,166.333 358.167,165.667 359.5,165C 356.833,164.333 356.833,163.667 359.5,163C 358.748,162.329 358.414,161.496 358.5,160.5 Z"/></g>
<g><path style="opacity:1" fill="#fdf591" d="M 226.5,168.5 C 226.5,168.833 226.5,169.167 226.5,169.5C 267.998,170.333 309.665,170.833 351.5,171C 352.745,171.791 354.078,172.291 355.5,172.5C 358.383,176.705 357.716,180.538 353.5,184C 343.265,185.286 332.932,185.952 322.5,186C 324.315,186.757 325.981,187.59 327.5,188.5C 322.616,187.098 317.616,186.431 312.5,186.5C 302.991,185.364 293.324,185.364 283.5,186.5C 281.393,185.532 279.059,185.198 276.5,185.5C 252.661,185.169 228.994,185.502 205.5,186.5C 204.508,186.672 203.842,186.338 203.5,185.5C 210.317,178.683 217.983,173.017 226.5,168.5 Z"/></g>
<g><path style="opacity:0.941" fill="#544f5c" d="M 196.5,170.5 C 194.431,173.573 191.764,175.906 188.5,177.5C 190.569,174.427 193.236,172.094 196.5,170.5 Z"/></g>
<g><path style="opacity:1" fill="#242958" d="M 236.5,145.5 C 236.918,146.222 237.584,146.722 238.5,147C 237.692,149.844 238.026,152.677 239.5,155.5C 240.167,155.167 240.833,154.833 241.5,154.5C 242.167,155.833 242.833,157.167 243.5,158.5C 245.311,157.173 247.311,156.173 249.5,155.5C 246.52,151.681 247.353,150.681 252,152.5C 253.828,146.904 255.328,146.404 256.5,151C 259.482,151.498 262.482,151.665 265.5,151.5C 263.58,152.065 261.913,153.065 260.5,154.5C 256.786,154.59 253.452,155.59 250.5,157.5C 241.998,160.085 233.998,163.751 226.5,168.5C 217.983,173.017 210.317,178.683 203.5,185.5C 198.833,189.5 194.5,193.833 190.5,198.5C 186.936,202.614 183.603,206.948 180.5,211.5C 178.833,213.5 177.167,215.5 175.5,217.5C 174.603,216.402 173.77,216.402 173,217.5C 172.51,218.793 172.343,220.127 172.5,221.5C 171.022,221.238 169.689,221.571 168.5,222.5C 168.26,224.967 167.593,227.633 166.5,230.5C 165.276,231.766 163.943,232.933 162.5,234C 162.037,236.796 162.037,239.629 162.5,242.5C 161.448,242.351 160.448,242.517 159.5,243C 160.406,244.699 160.739,246.533 160.5,248.5C 160.741,250.898 160.074,252.898 158.5,254.5C 158.815,252.774 158.981,251.107 159,249.5C 158.085,248.672 157.419,247.672 157,246.5C 155.455,247.821 154.289,247.488 153.5,245.5C 154.025,244.808 154.692,244.308 155.5,244C 153.506,243.807 151.672,242.973 150,241.5C 149.086,245.185 148.419,244.852 148,240.5C 147.689,242.556 147.189,244.556 146.5,246.5C 147.619,249.079 146.619,250.412 143.5,250.5C 147.971,233.56 155.138,217.893 165,203.5C 167.698,199.975 170.531,196.642 173.5,193.5C 175.014,192.32 176.681,191.32 178.5,190.5C 180.389,186.276 183.055,182.61 186.5,179.5C 186.5,178.167 187.167,177.5 188.5,177.5C 191.764,175.906 194.431,173.573 196.5,170.5C 208.209,159.641 221.542,151.308 236.5,145.5 Z"/></g>
<g><path style="opacity:0.071" fill="#795b50" d="M 416.5,179.5 C 418.5,179.5 419.5,180.5 419.5,182.5C 418.167,181.833 417.167,180.833 416.5,179.5 Z"/></g>
<g><path style="opacity:1" fill="#403634" d="M 395.5,181.5 C 398.089,182.419 400.089,184.086 401.5,186.5C 400.833,186.5 400.167,186.5 399.5,186.5C 398.167,184.833 396.833,183.167 395.5,181.5 Z"/></g>
<g><path style="opacity:1" fill="#4c445d" d="M 186.5,179.5 C 183.055,182.61 180.389,186.276 178.5,190.5C 176.681,191.32 175.014,192.32 173.5,193.5C 175.423,190.397 177.59,187.397 180,184.5C 181.777,182.21 183.944,180.543 186.5,179.5 Z"/></g>
<g><path style="opacity:1" fill="#fdc121" d="M 203.5,185.5 C 203.842,186.338 204.508,186.672 205.5,186.5C 212.508,186.334 219.508,186.5 226.5,187C 228.274,189.364 229.607,192.031 230.5,195C 230.241,196.261 229.574,197.261 228.5,198C 215.838,198.5 203.171,198.667 190.5,198.5C 194.5,193.833 198.833,189.5 203.5,185.5 Z"/></g>
<g><path style="opacity:1" fill="#2f262a" d="M 312.5,186.5 C 311.167,186.5 309.833,186.5 308.5,186.5C 300.937,186.228 293.603,186.895 286.5,188.5C 283.14,188.616 279.807,188.949 276.5,189.5C 278.779,188.349 281.112,187.349 283.5,186.5C 293.324,185.364 302.991,185.364 312.5,186.5 Z"/></g>
<g><path style="opacity:1" fill="#fbb525" d="M 399.5,186.5 C 400.167,186.5 400.833,186.5 401.5,186.5C 404.833,190.167 408.167,193.833 411.5,197.5C 399.242,198.645 386.909,198.812 374.5,198C 371.305,193.49 371.972,189.824 376.5,187C 384.159,186.5 391.826,186.334 399.5,186.5 Z"/></g>
<g><path style="opacity:1" fill="#171654" d="M 308.5,186.5 C 314.916,187.838 321.25,189.838 327.5,192.5C 329.566,191.39 330.399,192.056 330,194.5C 328.16,193.167 327.66,193.334 328.5,195C 326.942,195.21 325.609,195.71 324.5,196.5C 323.609,195.89 322.609,195.557 321.5,195.5C 319.189,193.932 316.522,193.098 313.5,193C 306.5,192.667 299.5,192.333 292.5,192C 293.357,191.311 294.023,190.478 294.5,189.5C 291.723,189.232 289.057,188.899 286.5,188.5C 293.603,186.895 300.937,186.228 308.5,186.5 Z"/></g>
<g><path style="opacity:1" fill="#dcc45e" d="M 276.5,185.5 C 279.059,185.198 281.393,185.532 283.5,186.5C 281.112,187.349 278.779,188.349 276.5,189.5C 266.91,191.806 257.91,195.472 249.5,200.5C 249.117,197.538 250.117,196.538 252.5,197.5C 259.061,193.552 266.061,190.718 273.5,189C 275.426,188.578 276.426,187.411 276.5,185.5 Z"/></g>
<g><path style="opacity:1" fill="#1a1749" d="M 308.5,186.5 C 309.833,186.5 311.167,186.5 312.5,186.5C 317.616,186.431 322.616,187.098 327.5,188.5C 342.617,193.059 355.95,200.725 367.5,211.5C 368.833,213.833 370.167,216.167 371.5,218.5C 369.988,216.683 367.988,215.683 365.5,215.5C 366.5,218.167 367.5,220.833 368.5,223.5C 363.084,217.747 357.084,212.747 350.5,208.5C 342.513,203.218 333.846,199.218 324.5,196.5C 325.609,195.71 326.942,195.21 328.5,195C 327.66,193.334 328.16,193.167 330,194.5C 330.399,192.056 329.566,191.39 327.5,192.5C 321.25,189.838 314.916,187.838 308.5,186.5 Z"/></g>
<g><path style="opacity:1" fill="#9af9d8" d="M 321.5,195.5 C 322.609,195.557 323.609,195.89 324.5,196.5C 333.846,199.218 342.513,203.218 350.5,208.5C 346.609,207.742 343.109,206.742 340,205.5C 339.267,209.988 337.267,210.988 334,208.5C 333.586,208.957 333.086,209.291 332.5,209.5C 328.693,207.674 324.693,206.674 320.5,206.5C 292.543,201.685 268.209,208.685 247.5,227.5C 246.778,227.082 246.278,226.416 246,225.5C 245.667,226.5 245.333,227.5 245,228.5C 243.14,226.003 241.14,224.336 239,223.5C 237.989,224.337 236.822,224.67 235.5,224.5C 258.613,198.969 287.279,189.303 321.5,195.5 Z"/></g>
<g><path style="opacity:1" fill="#fcdb48" d="M 205.5,186.5 C 228.994,185.502 252.661,185.169 276.5,185.5C 276.426,187.411 275.426,188.578 273.5,189C 266.061,190.718 259.061,193.552 252.5,197.5C 250.117,196.538 249.117,197.538 249.5,200.5C 245.544,202.788 242.211,205.788 239.5,209.5C 234.5,212.5 230.5,216.5 227.5,221.5C 225.1,223.296 223.433,225.63 222.5,228.5C 220.076,231.008 218.41,234.008 217.5,237.5C 216.167,239.5 214.833,241.5 213.5,243.5C 211.365,241.631 208.698,240.964 205.5,241.5C 207.292,240.691 209.292,240.191 211.5,240C 209.487,239.125 209.487,237.791 211.5,236C 210.577,233.959 210.244,231.792 210.5,229.5C 211.93,229.421 213.264,229.754 214.5,230.5C 215.466,228.604 215.799,226.604 215.5,224.5C 214.127,224.657 212.793,224.49 211.5,224C 213.301,223.683 213.634,223.016 212.5,222C 215.072,218.974 215.072,216.141 212.5,213.5C 212.389,212.883 212.056,212.383 211.5,212C 201.172,211.5 190.839,211.334 180.5,211.5C 183.603,206.948 186.936,202.614 190.5,198.5C 203.171,198.667 215.838,198.5 228.5,198C 229.574,197.261 230.241,196.261 230.5,195C 229.607,192.031 228.274,189.364 226.5,187C 219.508,186.5 212.508,186.334 205.5,186.5 Z"/></g>
<g><path style="opacity:1" fill="#06ebc3" d="M 320.5,206.5 C 322.888,207.349 325.221,208.349 327.5,209.5C 327.918,210.222 328.584,210.722 329.5,211C 328.359,211.741 328.359,212.575 329.5,213.5C 328.726,214.711 327.893,214.711 327,213.5C 325.513,214.253 325.346,215.086 326.5,216C 324.572,218.455 322.738,218.622 321,216.5C 319.587,218.652 318.754,220.986 318.5,223.5C 315.086,224.247 311.753,224.247 308.5,223.5C 308.5,225.5 308.5,227.5 308.5,229.5C 305.45,228.923 303.45,230.09 302.5,233C 303.813,235.326 305.813,236.659 308.5,237C 306.741,237.798 305.074,237.631 303.5,236.5C 302.376,235.086 301.376,233.586 300.5,232C 296.467,231.65 292.633,231.483 289,231.5C 286.544,233.321 283.711,233.988 280.5,233.5C 280.5,235.167 280.5,236.833 280.5,238.5C 275.679,238.441 271.012,239.275 266.5,241C 265.874,241.75 265.374,242.584 265,243.5C 264.692,242.692 264.192,242.025 263.5,241.5C 262.501,244.174 260.834,244.841 258.5,243.5C 257.571,244.689 257.238,246.022 257.5,247.5C 255.833,247.5 254.167,247.5 252.5,247.5C 252.5,248.5 252.5,249.5 252.5,250.5C 247.734,250.598 243.067,251.264 238.5,252.5C 238.328,250.508 238.995,248.842 240.5,247.5C 239.273,246.41 238.44,245.076 238,243.5C 234.945,248.72 232.111,254.053 229.5,259.5C 229.5,258.167 229.5,256.833 229.5,255.5C 233.978,245.217 239.978,235.884 247.5,227.5C 268.209,208.685 292.543,201.685 320.5,206.5 Z"/></g>
<g><path style="opacity:1" fill="#19184c" d="M 286.5,188.5 C 289.057,188.899 291.723,189.232 294.5,189.5C 294.023,190.478 293.357,191.311 292.5,192C 299.5,192.333 306.5,192.667 313.5,193C 316.522,193.098 319.189,193.932 321.5,195.5C 287.279,189.303 258.613,198.969 235.5,224.5C 233.804,226.525 232.137,228.525 230.5,230.5C 230.595,227.642 231.762,225.309 234,223.5C 234.798,221.741 234.631,220.074 233.5,218.5C 229.478,221.638 225.811,224.971 222.5,228.5C 223.433,225.63 225.1,223.296 227.5,221.5C 231.833,217.833 235.833,213.833 239.5,209.5C 242.211,205.788 245.544,202.788 249.5,200.5C 257.91,195.472 266.91,191.806 276.5,189.5C 279.807,188.949 283.14,188.616 286.5,188.5 Z"/></g>
<g><path style="opacity:1" fill="#fcb721" d="M 180.5,211.5 C 190.839,211.334 201.172,211.5 211.5,212C 212.056,212.383 212.389,212.883 212.5,213.5C 213.977,216.761 213.311,219.594 210.5,222C 198.171,222.5 185.838,222.667 173.5,222.5C 174.167,220.833 174.833,219.167 175.5,217.5C 177.167,215.5 178.833,213.5 180.5,211.5 Z"/></g>
<g><path style="opacity:1" fill="#6ffbd8" d="M 350.5,208.5 C 357.084,212.747 363.084,217.747 368.5,223.5C 370.5,226.5 372.5,229.5 374.5,232.5C 375.071,234.36 375.071,236.027 374.5,237.5C 373.691,239.292 373.191,241.292 373,243.5C 362.246,226.243 347.079,214.91 327.5,209.5C 325.221,208.349 322.888,207.349 320.5,206.5C 324.693,206.674 328.693,207.674 332.5,209.5C 333.086,209.291 333.586,208.957 334,208.5C 337.267,210.988 339.267,209.988 340,205.5C 343.109,206.742 346.609,207.742 350.5,208.5 Z"/></g>
<g><path style="opacity:1" fill="#2c1f25" d="M 239.5,209.5 C 235.833,213.833 231.833,217.833 227.5,221.5C 230.5,216.5 234.5,212.5 239.5,209.5 Z"/></g>
<g><path style="opacity:1" fill="#fb3862" d="M 421.5,210.5 C 424.215,213.214 426.549,216.214 428.5,219.5C 429.11,220.391 429.443,221.391 429.5,222.5C 429.167,222.5 428.833,222.5 428.5,222.5C 413.962,221.802 399.295,221.135 384.5,220.5C 382.669,216.947 383.335,214.114 386.5,212C 398.341,211.831 410.007,211.331 421.5,210.5 Z"/></g>
<g><path style="opacity:1" fill="#1f2056" d="M 453.5,233.5 C 455.097,235.848 456.097,238.514 456.5,241.5C 456.402,243.553 457.069,245.22 458.5,246.5C 459.234,247.708 459.567,249.041 459.5,250.5C 459.5,250.833 459.5,251.167 459.5,251.5C 457.559,251.869 455.725,252.536 454,253.5C 452.826,251.329 450.993,250.329 448.5,250.5C 448.649,249.448 448.483,248.448 448,247.5C 447.584,249.55 446.417,250.884 444.5,251.5C 444.445,248.386 443.112,246.052 440.5,244.5C 440.34,242.847 439.674,241.514 438.5,240.5C 436.868,234.57 434.202,229.236 430.5,224.5C 430.672,223.508 430.338,222.842 429.5,222.5C 429.443,221.391 429.11,220.391 428.5,219.5C 429.552,219.649 430.552,219.483 431.5,219C 430.304,218.346 430.304,217.846 431.5,217.5C 432.792,220.619 434.292,223.619 436,226.5C 436.333,225.5 436.667,224.5 437,223.5C 437.163,225.676 437.996,227.509 439.5,229C 439.167,229.333 438.833,229.667 438.5,230C 440.058,233.113 441.891,233.28 444,230.5C 443.33,234.469 444.664,237.803 448,240.5C 449.543,239.423 449.543,238.089 448,236.5C 446.869,237.604 446.035,237.271 445.5,235.5C 446.531,234.3 447.365,232.966 448,231.5C 448.667,232.833 449.333,232.833 450,231.5C 450.335,234.19 451.501,234.857 453.5,233.5 Z"/></g>
<g><path style="opacity:1" fill="#151052" d="M 230.5,230.5 C 227.816,235.207 225.149,239.873 222.5,244.5C 219.873,247.422 218.206,250.922 217.5,255C 216.387,256.394 215.053,257.561 213.5,258.5C 212.417,257.635 212.251,256.635 213,255.5C 214.167,254.333 215.333,253.167 216.5,252C 215.572,251.612 214.905,250.945 214.5,250C 215.148,248.56 215.481,247.06 215.5,245.5C 216.371,242.888 217.037,240.221 217.5,237.5C 219.943,234.948 221.61,231.948 222.5,228.5C 225.811,224.971 229.478,221.638 233.5,218.5C 234.631,220.074 234.798,221.741 234,223.5C 231.762,225.309 230.595,227.642 230.5,230.5 Z"/></g>
<g><path style="opacity:1" fill="#28213c" d="M 175.5,217.5 C 174.833,219.167 174.167,220.833 173.5,222.5C 168.555,229.478 164.888,237.144 162.5,245.5C 161.833,246.5 161.167,247.5 160.5,248.5C 160.739,246.533 160.406,244.699 159.5,243C 160.448,242.517 161.448,242.351 162.5,242.5C 162.037,239.629 162.037,236.796 162.5,234C 163.943,232.933 165.276,231.766 166.5,230.5C 167.593,227.633 168.26,224.967 168.5,222.5C 169.689,221.571 171.022,221.238 172.5,221.5C 172.343,220.127 172.51,218.793 173,217.5C 173.77,216.402 174.603,216.402 175.5,217.5 Z"/></g>
<g><path style="opacity:1" fill="#fdd940" d="M 212.5,213.5 C 215.072,216.141 215.072,218.974 212.5,222C 213.634,223.016 213.301,223.683 211.5,224C 212.793,224.49 214.127,224.657 215.5,224.5C 215.799,226.604 215.466,228.604 214.5,230.5C 213.264,229.754 211.93,229.421 210.5,229.5C 210.244,231.792 210.577,233.959 211.5,236C 209.487,237.791 209.487,239.125 211.5,240C 209.292,240.191 207.292,240.691 205.5,241.5C 191.833,241.5 178.167,241.5 164.5,241.5C 164.771,243.38 164.104,244.713 162.5,245.5C 164.888,237.144 168.555,229.478 173.5,222.5C 185.838,222.667 198.171,222.5 210.5,222C 213.311,219.594 213.977,216.761 212.5,213.5 Z"/></g>
<g><path style="opacity:1" fill="#2a1532" d="M 367.5,211.5 C 372.584,216.248 376.917,221.581 380.5,227.5C 376.472,225.472 373.472,222.472 371.5,218.5C 370.167,216.167 368.833,213.833 367.5,211.5 Z"/></g>
<g><path style="opacity:1" fill="#eb4b48" d="M 384.5,220.5 C 399.295,221.135 413.962,221.802 428.5,222.5C 415.167,222.5 401.833,222.5 388.5,222.5C 386.62,222.771 385.287,222.104 384.5,220.5 Z"/></g>
<g><path style="opacity:1" fill="#f79f4c" d="M 388.5,222.5 C 401.833,222.5 415.167,222.5 428.5,222.5C 428.833,222.5 429.167,222.5 429.5,222.5C 430.338,222.842 430.672,223.508 430.5,224.5C 416.402,223.849 402.402,223.183 388.5,222.5 Z"/></g>
<g><path style="opacity:1" fill="#28102b" d="M 380.5,227.5 C 382.588,229.336 383.921,231.669 384.5,234.5C 381.379,233.264 380.045,230.931 380.5,227.5 Z"/></g>
<g><path style="opacity:1" fill="#28191e" d="M 222.5,228.5 C 221.61,231.948 219.943,234.948 217.5,237.5C 218.41,234.008 220.076,231.008 222.5,228.5 Z"/></g>
<g><path style="opacity:1" fill="#6cfad8" d="M 247.5,227.5 C 239.978,235.884 233.978,245.217 229.5,255.5C 228.442,256.6 227.608,257.934 227,259.5C 223.198,257.615 220.031,258.615 217.5,262.5C 218.555,256.273 220.222,250.273 222.5,244.5C 225.149,239.873 227.816,235.207 230.5,230.5C 232.137,228.525 233.804,226.525 235.5,224.5C 236.822,224.67 237.989,224.337 239,223.5C 241.14,224.336 243.14,226.003 245,228.5C 245.333,227.5 245.667,226.5 246,225.5C 246.278,226.416 246.778,227.082 247.5,227.5 Z"/></g>
<g><path style="opacity:1" fill="#10c5c4" d="M 374.5,232.5 C 380.048,239.937 383.715,248.27 385.5,257.5C 384.942,259.789 383.776,261.789 382,263.5C 381.503,265.81 381.337,268.143 381.5,270.5C 381.167,270.5 380.833,270.5 380.5,270.5C 380.878,262.875 379.044,255.875 375,249.5C 374.501,245.514 374.334,241.514 374.5,237.5C 375.071,236.027 375.071,234.36 374.5,232.5 Z"/></g>
<g><path style="opacity:1" fill="#d6e7fd" d="M 348.5,236.5 C 348.833,236.5 349.167,236.5 349.5,236.5C 349.5,238.5 349.5,240.5 349.5,242.5C 347.163,244.965 345.663,247.965 345,251.5C 339.53,273.047 334.53,294.713 330,316.5C 328.803,320.866 325.97,323.2 321.5,323.5C 320.833,323.5 320.5,323.167 320.5,322.5C 320.938,322.565 321.272,322.399 321.5,322C 317.376,316.254 313.376,310.42 309.5,304.5C 318.766,286.967 327.766,269.301 336.5,251.5C 341.253,247.083 345.253,242.083 348.5,236.5 Z"/></g>
<g><path style="opacity:1" fill="#03e4c5" d="M 327.5,209.5 C 347.079,214.91 362.246,226.243 373,243.5C 373.191,241.292 373.691,239.292 374.5,237.5C 374.334,241.514 374.501,245.514 375,249.5C 379.044,255.875 380.878,262.875 380.5,270.5C 380.321,275.995 380.321,281.328 380.5,286.5C 380.281,287.938 379.781,289.271 379,290.5C 376.502,289.879 374.168,290.545 372,292.5C 370.869,291.396 370.035,291.729 369.5,293.5C 366.973,294.214 364.473,294.88 362,295.5C 360.748,293.999 359.748,292.332 359,290.5C 358.667,277.5 358.333,264.5 358,251.5C 357.768,250.263 357.268,249.263 356.5,248.5C 354.829,244.851 353.496,241.184 352.5,237.5C 352.443,236.391 352.11,235.391 351.5,234.5C 350.109,232.11 348.109,230.443 345.5,229.5C 345.389,228.883 345.056,228.383 344.5,228C 341.633,227.199 338.966,227.366 336.5,228.5C 309.358,238.385 282.025,248.218 254.5,258C 253.29,259.039 252.29,260.206 251.5,261.5C 248.405,266.084 247.739,271.084 249.5,276.5C 249.151,283.783 250.818,290.45 254.5,296.5C 255.47,299.661 257.137,302.494 259.5,305C 263,307.167 266.5,309.333 270,311.5C 270.49,312.793 270.657,314.127 270.5,315.5C 271.822,315.33 272.989,315.663 274,316.5C 275.974,313.882 277.807,314.048 279.5,317C 277.316,319.368 274.649,320.035 271.5,319C 270.167,318.667 268.833,318.333 267.5,318C 266.833,316 265.5,314.667 263.5,314C 254.31,313.769 245.476,312.269 237,309.5C 234.513,311.162 233.013,313.496 232.5,316.5C 231.893,316.376 231.56,316.043 231.5,315.5C 232.043,315.44 232.376,315.107 232.5,314.5C 226.096,300.506 223.929,285.84 226,270.5C 226.498,266.509 227.665,262.842 229.5,259.5C 232.111,254.053 234.945,248.72 238,243.5C 238.44,245.076 239.273,246.41 240.5,247.5C 238.995,248.842 238.328,250.508 238.5,252.5C 243.067,251.264 247.734,250.598 252.5,250.5C 252.5,249.5 252.5,248.5 252.5,247.5C 254.167,247.5 255.833,247.5 257.5,247.5C 257.238,246.022 257.571,244.689 258.5,243.5C 260.834,244.841 262.501,244.174 263.5,241.5C 264.192,242.025 264.692,242.692 265,243.5C 265.374,242.584 265.874,241.75 266.5,241C 271.012,239.275 275.679,238.441 280.5,238.5C 280.5,236.833 280.5,235.167 280.5,233.5C 283.711,233.988 286.544,233.321 289,231.5C 292.633,231.483 296.467,231.65 300.5,232C 301.376,233.586 302.376,235.086 303.5,236.5C 305.074,237.631 306.741,237.798 308.5,237C 305.813,236.659 303.813,235.326 302.5,233C 303.45,230.09 305.45,228.923 308.5,229.5C 308.5,227.5 308.5,225.5 308.5,223.5C 311.753,224.247 315.086,224.247 318.5,223.5C 318.754,220.986 319.587,218.652 321,216.5C 322.738,218.622 324.572,218.455 326.5,216C 325.346,215.086 325.513,214.253 327,213.5C 327.893,214.711 328.726,214.711 329.5,213.5C 328.359,212.575 328.359,211.741 329.5,211C 328.584,210.722 327.918,210.222 327.5,209.5 Z"/></g>
<g><path style="opacity:1" fill="#11295c" d="M 336.5,228.5 C 339.57,228.368 342.57,228.701 345.5,229.5C 348.109,230.443 350.109,232.11 351.5,234.5C 350.167,234.5 349.5,235.167 349.5,236.5C 349.167,236.5 348.833,236.5 348.5,236.5C 347.969,234.376 346.635,232.876 344.5,232C 341.833,231.333 339.167,231.333 336.5,232C 309.766,241.743 283.1,251.577 256.5,261.5C 255.065,260.904 253.398,260.904 251.5,261.5C 252.29,260.206 253.29,259.039 254.5,258C 282.025,248.218 309.358,238.385 336.5,228.5 Z"/></g>
<g><path style="opacity:1" fill="#f9fbfd" d="M 348.5,236.5 C 345.253,242.083 341.253,247.083 336.5,251.5C 335.778,251.082 335.278,250.416 335,249.5C 333.959,251.311 332.793,251.645 331.5,250.5C 331.953,249.542 332.619,248.708 333.5,248C 321.234,252.615 308.901,257.615 296.5,263C 298.488,263.18 300.488,263.014 302.5,262.5C 292.447,267.802 282.114,272.635 271.5,277C 268.274,278.199 264.941,278.699 261.5,278.5C 254.275,277.717 251.108,273.717 252,266.5C 252.996,264.34 254.496,262.673 256.5,261.5C 283.1,251.577 309.766,241.743 336.5,232C 339.167,231.333 341.833,231.333 344.5,232C 346.635,232.876 347.969,234.376 348.5,236.5 Z"/></g>
<g><path style="opacity:1" fill="#2196a1" d="M 336.5,228.5 C 338.966,227.366 341.633,227.199 344.5,228C 345.056,228.383 345.389,228.883 345.5,229.5C 342.57,228.701 339.57,228.368 336.5,228.5 Z"/></g>
<g><path style="opacity:1" fill="#fdb222" d="M 205.5,241.5 C 208.698,240.964 211.365,241.631 213.5,243.5C 213.167,245.5 212.833,247.5 212.5,249.5C 211.32,253.217 209.987,256.884 208.5,260.5C 192.072,262.463 175.405,263.13 158.5,262.5C 158.5,261.5 158.5,260.5 158.5,259.5C 158.5,257.833 158.5,256.167 158.5,254.5C 160.074,252.898 160.741,250.898 160.5,248.5C 161.167,247.5 161.833,246.5 162.5,245.5C 164.104,244.713 164.771,243.38 164.5,241.5C 178.167,241.5 191.833,241.5 205.5,241.5 Z"/></g>
<g><path style="opacity:1" fill="#311b1b" d="M 217.5,237.5 C 217.037,240.221 216.371,242.888 215.5,245.5C 214.5,246.833 213.5,248.167 212.5,249.5C 212.833,247.5 213.167,245.5 213.5,243.5C 214.833,241.5 216.167,239.5 217.5,237.5 Z"/></g>
<g><path style="opacity:1" fill="#fdb221" d="M 438.5,240.5 C 439.674,241.514 440.34,242.847 440.5,244.5C 442.57,250.378 444.237,256.378 445.5,262.5C 428.756,262.818 412.089,262.485 395.5,261.5C 393.937,255.525 391.937,249.859 389.5,244.5C 389.443,243.391 389.11,242.391 388.5,241.5C 405.342,241.83 422.008,241.497 438.5,240.5 Z"/></g>
<g><path style="opacity:0.071" fill="#7c544d" d="M 456.5,241.5 C 457.931,242.78 458.598,244.447 458.5,246.5C 457.069,245.22 456.402,243.553 456.5,241.5 Z"/></g>
<g><path style="opacity:1" fill="#069fbe" d="M 352.5,237.5 C 353.496,241.184 354.829,244.851 356.5,248.5C 357.41,259.802 357.743,271.136 357.5,282.5C 357.167,282.5 356.833,282.5 356.5,282.5C 356.666,272.828 356.5,263.161 356,253.5C 354.209,250.65 353.042,247.65 352.5,244.5C 352.5,242.167 352.5,239.833 352.5,237.5 Z"/></g>
<g><path style="opacity:1" fill="#311627" d="M 389.5,244.5 C 391.937,249.859 393.937,255.525 395.5,261.5C 395.5,262.167 395.5,262.833 395.5,263.5C 391.525,257.905 389.525,251.571 389.5,244.5 Z"/></g>
<g><path style="opacity:0.071" fill="#7b4c4c" d="M 459.5,250.5 C 461.04,252.838 461.706,255.505 461.5,258.5C 460.388,256.401 459.721,254.067 459.5,251.5C 459.5,251.167 459.5,250.833 459.5,250.5 Z"/></g>
<g><path style="opacity:1" fill="#2c1d34" d="M 440.5,244.5 C 443.112,246.052 444.445,248.386 444.5,251.5C 445.642,255.071 446.309,258.738 446.5,262.5C 446.167,262.5 445.833,262.5 445.5,262.5C 444.237,256.378 442.57,250.378 440.5,244.5 Z"/></g>
<g><path style="opacity:1" fill="#270e2d" d="M 212.5,249.5 C 212.413,256.22 211.079,262.554 208.5,268.5C 208.5,267.167 208.5,265.833 208.5,264.5C 208.5,264.167 208.5,263.833 208.5,263.5C 208.5,262.5 208.5,261.5 208.5,260.5C 209.987,256.884 211.32,253.217 212.5,249.5 Z"/></g>
<g><path style="opacity:0.667" fill="#6a3f4d" d="M 142.5,255.5 C 142.706,258.495 142.04,261.162 140.5,263.5C 140.294,260.505 140.96,257.838 142.5,255.5 Z"/></g>
<g><path style="opacity:1" fill="#fa8c3f" d="M 158.5,259.5 C 158.5,260.5 158.5,261.5 158.5,262.5C 175.405,263.13 192.072,262.463 208.5,260.5C 208.5,261.5 208.5,262.5 208.5,263.5C 191.5,263.5 174.5,263.5 157.5,263.5C 157.232,261.901 157.566,260.568 158.5,259.5 Z"/></g>
<g><path style="opacity:1" fill="#111755" d="M 351.5,234.5 C 352.11,235.391 352.443,236.391 352.5,237.5C 352.5,239.833 352.5,242.167 352.5,244.5C 352.094,250.863 351.427,257.197 350.5,263.5C 347.675,283.026 344.841,302.692 342,322.5C 341.623,323.942 340.79,324.942 339.5,325.5C 338.292,324.766 336.959,324.433 335.5,324.5C 336.458,323.038 337.624,321.705 339,320.5C 342.736,294.518 346.236,268.518 349.5,242.5C 349.5,240.5 349.5,238.5 349.5,236.5C 349.5,235.167 350.167,234.5 351.5,234.5 Z"/></g>
<g><path style="opacity:1" fill="#fd883b" d="M 395.5,261.5 C 412.089,262.485 428.756,262.818 445.5,262.5C 445.5,262.833 445.5,263.167 445.5,263.5C 428.833,263.5 412.167,263.5 395.5,263.5C 395.5,262.833 395.5,262.167 395.5,261.5 Z"/></g>
<g><path style="opacity:1" fill="#f23f41" d="M 157.5,263.5 C 174.5,263.5 191.5,263.5 208.5,263.5C 208.5,263.833 208.5,264.167 208.5,264.5C 191.589,264.175 174.756,264.508 158,265.5C 157.536,264.906 157.369,264.239 157.5,263.5 Z"/></g>
<g><path style="opacity:1" fill="#acbef8" d="M 349.5,242.5 C 346.236,268.518 342.736,294.518 339,320.5C 337.624,321.705 336.458,323.038 335.5,324.5C 330.47,327.467 325.803,327.134 321.5,323.5C 325.97,323.2 328.803,320.866 330,316.5C 334.53,294.713 339.53,273.047 345,251.5C 345.663,247.965 347.163,244.965 349.5,242.5 Z"/></g>
<g><path style="opacity:1" fill="#fc3759" d="M 395.5,263.5 C 412.167,263.5 428.833,263.5 445.5,263.5C 445.75,270.256 446.417,276.922 447.5,283.5C 430.5,283.5 413.5,283.5 396.5,283.5C 396.546,276.809 396.212,270.143 395.5,263.5 Z"/></g>
<g><path style="opacity:1" fill="#fc365f" d="M 157.5,263.5 C 157.369,264.239 157.536,264.906 158,265.5C 174.756,264.508 191.589,264.175 208.5,264.5C 208.5,265.833 208.5,267.167 208.5,268.5C 208.5,268.833 208.5,269.167 208.5,269.5C 207.514,273.97 207.181,278.637 207.5,283.5C 189.833,283.5 172.167,283.5 154.5,283.5C 154.5,280.833 154.5,278.167 154.5,275.5C 155.508,271.407 156.508,267.407 157.5,263.5 Z"/></g>
<g><path style="opacity:0.999" fill="#1a1952" d="M 158.5,254.5 C 158.5,256.167 158.5,257.833 158.5,259.5C 157.566,260.568 157.232,261.901 157.5,263.5C 156.508,267.407 155.508,271.407 154.5,275.5C 152.892,278.595 151.226,281.762 149.5,285C 150.5,285.833 151.5,286.667 152.5,287.5C 151.478,288.354 150.645,289.354 150,290.5C 146.893,289.561 143.559,289.228 140,289.5C 139.667,292.5 139.333,295.5 139,298.5C 138.823,294.644 138.323,290.977 137.5,287.5C 137.5,286.5 137.5,285.5 137.5,284.5C 138.725,279.71 139.392,274.71 139.5,269.5C 139.325,267.379 139.659,265.379 140.5,263.5C 142.04,261.162 142.706,258.495 142.5,255.5C 142.629,253.784 142.962,252.117 143.5,250.5C 146.619,250.412 147.619,249.079 146.5,246.5C 147.189,244.556 147.689,242.556 148,240.5C 148.419,244.852 149.086,245.185 150,241.5C 151.672,242.973 153.506,243.807 155.5,244C 154.692,244.308 154.025,244.808 153.5,245.5C 154.289,247.488 155.455,247.821 157,246.5C 157.419,247.672 158.085,248.672 159,249.5C 158.981,251.107 158.815,252.774 158.5,254.5 Z"/></g>
<g><path style="opacity:1" fill="#1c1852" d="M 459.5,251.5 C 459.721,254.067 460.388,256.401 461.5,258.5C 462.341,260.379 462.675,262.379 462.5,264.5C 462.539,268.733 463.205,272.733 464.5,276.5C 465.324,279.764 465.658,283.098 465.5,286.5C 465.02,281.483 463.02,280.65 459.5,284C 461.661,285.764 461.828,287.597 460,289.5C 457.899,288.076 455.733,286.742 453.5,285.5C 452.808,286.025 452.308,286.692 452,287.5C 450.514,284.15 449.347,280.816 448.5,277.5C 447.275,272.71 446.608,267.71 446.5,262.5C 446.309,258.738 445.642,255.071 444.5,251.5C 446.417,250.884 447.584,249.55 448,247.5C 448.483,248.448 448.649,249.448 448.5,250.5C 450.993,250.329 452.826,251.329 454,253.5C 455.725,252.536 457.559,251.869 459.5,251.5 Z"/></g>
<g><path style="opacity:0.071" fill="#7a494b" d="M 462.5,264.5 C 463.989,268.236 464.656,272.236 464.5,276.5C 463.205,272.733 462.539,268.733 462.5,264.5 Z"/></g>
<g><path style="opacity:0.161" fill="#82504b" d="M 139.5,269.5 C 139.392,274.71 138.725,279.71 137.5,284.5C 137.302,279.25 137.969,274.25 139.5,269.5 Z"/></g>
<g><path style="opacity:1" fill="#d73965" d="M 445.5,262.5 C 445.833,262.5 446.167,262.5 446.5,262.5C 446.608,267.71 447.275,272.71 448.5,277.5C 448.5,279.5 448.5,281.5 448.5,283.5C 448.167,283.5 447.833,283.5 447.5,283.5C 446.417,276.922 445.75,270.256 445.5,263.5C 445.5,263.167 445.5,262.833 445.5,262.5 Z"/></g>
<g><path style="opacity:1" fill="#50301a" d="M 396.5,283.5 C 396.5,283.833 396.5,284.167 396.5,284.5C 396.24,290.172 395.907,295.839 395.5,301.5C 395.167,301.5 394.833,301.5 394.5,301.5C 394.523,295.288 395.19,289.288 396.5,283.5 Z"/></g>
<g><path style="opacity:1" fill="#fa8940" d="M 396.5,284.5 C 396.5,284.167 396.5,283.833 396.5,283.5C 413.5,283.5 430.5,283.5 447.5,283.5C 447.833,283.5 448.167,283.5 448.5,283.5C 448.5,284.167 448.5,284.833 448.5,285.5C 448.5,291.167 448.5,296.833 448.5,302.5C 430.659,302.83 412.992,302.497 395.5,301.5C 412.503,301.667 429.503,301.5 446.5,301C 447.473,295.593 447.807,290.093 447.5,284.5C 430.5,284.5 413.5,284.5 396.5,284.5 Z"/></g>
<g><path style="opacity:1" fill="#feb124" d="M 154.5,283.5 C 172.167,283.5 189.833,283.5 207.5,283.5C 207.268,289.62 207.935,295.62 209.5,301.5C 191.167,301.5 172.833,301.5 154.5,301.5C 154.5,295.5 154.5,289.5 154.5,283.5 Z"/></g>
<g><path style="opacity:1" fill="#feaf1d" d="M 396.5,284.5 C 413.5,284.5 430.5,284.5 447.5,284.5C 447.807,290.093 447.473,295.593 446.5,301C 429.503,301.5 412.503,301.667 395.5,301.5C 395.907,295.839 396.24,290.172 396.5,284.5 Z"/></g>
<g><path style="opacity:1" fill="#3b0e30" d="M 208.5,269.5 C 208.334,276.508 208.5,283.508 209,290.5C 210.315,297.071 211.148,303.738 211.5,310.5C 210.087,307.781 209.42,304.781 209.5,301.5C 207.935,295.62 207.268,289.62 207.5,283.5C 207.181,278.637 207.514,273.97 208.5,269.5 Z"/></g>
<g><path style="opacity:1" fill="#200f47" d="M 154.5,275.5 C 154.5,278.167 154.5,280.833 154.5,283.5C 154.5,289.5 154.5,295.5 154.5,301.5C 154.5,304.167 154.5,306.833 154.5,309.5C 154.5,311.5 154.5,313.5 154.5,315.5C 152.88,316.841 151.88,318.674 151.5,321C 152.711,321.893 152.711,322.726 151.5,323.5C 150.742,322.189 149.742,321.689 148.5,322C 147.97,323.256 147.97,324.756 148.5,326.5C 144.746,329.227 145.413,331.06 150.5,332C 150,332.5 149.5,333 149,333.5C 147.701,333.034 146.201,333.034 144.5,333.5C 144.274,336.249 144.607,338.916 145.5,341.5C 146.689,342.429 148.022,342.762 149.5,342.5C 149.773,344.451 149.107,345.951 147.5,347C 149.002,347.583 150.335,348.416 151.5,349.5C 152.641,350.425 152.641,351.259 151.5,352C 152.308,352.308 152.975,352.808 153.5,353.5C 152.5,354.167 151.5,354.833 150.5,355.5C 152.005,356.842 152.672,358.508 152.5,360.5C 145.298,347.912 140.965,334.245 139.5,319.5C 139.332,313.966 138.665,308.633 137.5,303.5C 137.5,298.167 137.5,292.833 137.5,287.5C 138.323,290.977 138.823,294.644 139,298.5C 139.333,295.5 139.667,292.5 140,289.5C 143.559,289.228 146.893,289.561 150,290.5C 150.645,289.354 151.478,288.354 152.5,287.5C 151.5,286.667 150.5,285.833 149.5,285C 151.226,281.762 152.892,278.595 154.5,275.5 Z"/></g>
<g><path style="opacity:1" fill="#fc5f3b" d="M 154.5,301.5 C 172.833,301.5 191.167,301.5 209.5,301.5C 209.42,304.781 210.087,307.781 211.5,310.5C 212.167,314.167 212.833,317.833 213.5,321.5C 212.833,321.5 212.5,321.833 212.5,322.5C 205.857,322.178 199.19,322.178 192.5,322.5C 180.833,322.5 169.167,322.5 157.5,322.5C 156.402,318.091 155.402,313.758 154.5,309.5C 154.5,306.833 154.5,304.167 154.5,301.5 Z"/></g>
<g><path style="opacity:1" fill="#fb315f" d="M 394.5,301.5 C 394.833,301.5 395.167,301.5 395.5,301.5C 412.992,302.497 430.659,302.83 448.5,302.5C 447.989,309.256 446.989,315.923 445.5,322.5C 444.5,322.5 443.5,322.5 442.5,322.5C 426.675,321.504 410.675,321.17 394.5,321.5C 394.5,314.833 394.5,308.167 394.5,301.5 Z"/></g>
<g><path style="opacity:0.161" fill="#814a4a" d="M 137.5,303.5 C 138.665,308.633 139.332,313.966 139.5,319.5C 137.922,314.417 137.255,309.084 137.5,303.5 Z"/></g>
<g><path style="opacity:1" fill="#532d4e" d="M 465.5,302.5 C 465.332,308.034 464.665,313.367 463.5,318.5C 463.726,315.751 463.393,313.084 462.5,310.5C 463.917,307.908 464.917,305.241 465.5,302.5 Z"/></g>
<g><path style="opacity:1" fill="#4f162d" d="M 448.5,285.5 C 450.398,299.374 449.398,313.04 445.5,326.5C 445.5,325.167 445.5,323.833 445.5,322.5C 446.989,315.923 447.989,309.256 448.5,302.5C 448.5,296.833 448.5,291.167 448.5,285.5 Z"/></g>
<g><path style="opacity:1" fill="#feb920" d="M 431.5,322.5 C 434.625,323.479 437.958,323.813 441.5,323.5C 440.641,327.562 439.474,331.562 438,335.5C 437.303,337.584 436.136,339.251 434.5,340.5C 421.5,340.5 408.5,340.5 395.5,340.5C 395.5,334.5 395.5,328.5 395.5,322.5C 407.5,322.5 419.5,322.5 431.5,322.5 Z"/></g>
<g><path style="opacity:1" fill="#f9a223" d="M 431.5,322.5 C 435.167,322.5 438.833,322.5 442.5,322.5C 443.5,322.5 444.5,322.5 445.5,322.5C 445.5,323.833 445.5,325.167 445.5,326.5C 443.69,329.145 442.69,332.145 442.5,335.5C 442.5,335.833 442.5,336.167 442.5,336.5C 441.655,337.671 440.989,339.005 440.5,340.5C 438.5,340.5 436.5,340.5 434.5,340.5C 436.136,339.251 437.303,337.584 438,335.5C 439.474,331.562 440.641,327.562 441.5,323.5C 437.958,323.813 434.625,323.479 431.5,322.5 Z"/></g>
<g><path style="opacity:1" fill="#180542" d="M 371.5,218.5 C 373.472,222.472 376.472,225.472 380.5,227.5C 380.045,230.931 381.379,233.264 384.5,234.5C 386.083,236.663 387.416,238.996 388.5,241.5C 389.11,242.391 389.443,243.391 389.5,244.5C 389.525,251.571 391.525,257.905 395.5,263.5C 396.212,270.143 396.546,276.809 396.5,283.5C 395.19,289.288 394.523,295.288 394.5,301.5C 394.5,308.167 394.5,314.833 394.5,321.5C 394.5,321.833 394.5,322.167 394.5,322.5C 393.504,338.658 393.17,354.991 393.5,371.5C 381.655,371.172 369.988,371.505 358.5,372.5C 358.167,372.5 357.833,372.5 357.5,372.5C 352.813,372.512 350.146,374.845 349.5,379.5C 347.852,377.571 346.185,375.571 344.5,373.5C 341.378,374.561 338.378,375.894 335.5,377.5C 335.167,377.167 334.833,376.833 334.5,376.5C 335.325,375.614 336.325,375.281 337.5,375.5C 337.5,374.5 337.5,373.5 337.5,372.5C 335.856,372.286 334.356,372.62 333,373.5C 331.312,372.675 331.145,371.675 332.5,370.5C 331.349,369.269 330.183,369.269 329,370.5C 327.796,369.529 327.296,368.529 327.5,367.5C 326.352,369.35 325.019,370.017 323.5,369.5C 324.381,370.971 325.714,371.804 327.5,372C 326.274,373.635 324.941,375.135 323.5,376.5C 323.511,375.559 323.011,374.892 322,374.5C 320.989,374.892 320.489,375.559 320.5,376.5C 316.072,374.108 311.572,374.108 307,376.5C 306.333,373.833 305.667,373.833 305,376.5C 304.692,375.692 304.192,375.025 303.5,374.5C 303.167,375.167 302.833,375.833 302.5,376.5C 301.614,375.675 301.281,374.675 301.5,373.5C 302.552,373.649 303.552,373.483 304.5,373C 302.968,372.3 301.968,371.134 301.5,369.5C 296.932,368.204 296.599,368.704 300.5,371C 299.167,372 299.167,373 300.5,374C 298.567,374.251 296.734,374.751 295,375.5C 294.667,375.167 294.333,374.833 294,374.5C 293.311,375.357 292.478,376.023 291.5,376.5C 290.698,374.482 289.198,372.482 287,370.5C 285.956,371.623 285.29,372.956 285,374.5C 284.586,374.043 284.086,373.709 283.5,373.5C 281.932,375.2 280.099,376.534 278,377.5C 276.518,375.219 274.851,375.219 273,377.5C 272.667,377.167 272.333,376.833 272,376.5C 271.517,377.448 271.351,378.448 271.5,379.5C 270.167,379.5 268.833,379.5 267.5,379.5C 268.002,371.514 264.835,369.514 258,373.5C 256.033,380.199 258.533,383.366 265.5,383C 264.4,384.023 263.067,384.523 261.5,384.5C 259.716,383.844 258.049,383.344 256.5,383C 257.456,386.394 257.789,389.894 257.5,393.5C 253.625,394.126 251.791,392.459 252,388.5C 250.344,398.361 250.177,408.027 251.5,417.5C 252.167,417.167 252.833,416.833 253.5,416.5C 255.459,419.606 257.626,419.94 260,417.5C 260.317,419.301 260.984,419.634 262,418.5C 262.5,419 263,419.5 263.5,420C 261.507,421.621 259.507,423.287 257.5,425C 259.878,425.974 259.544,426.641 256.5,427C 257.396,429.179 258.729,431.012 260.5,432.5C 259.753,432.736 258.92,433.07 258,433.5C 257.667,434.5 257.333,435.5 257,436.5C 256.107,435.289 255.274,435.289 254.5,436.5C 255.855,437.675 255.688,438.675 254,439.5C 253.104,436.975 253.604,434.808 255.5,433C 253.056,433.553 250.889,432.719 249,430.5C 247.333,430.5 245.667,430.5 244,430.5C 244.802,433.511 244.635,436.511 243.5,439.5C 246.012,439.423 248.012,440.423 249.5,442.5C 246.974,443.51 244.808,442.843 243,440.5C 240.842,441.05 240.342,442.05 241.5,443.5C 204.544,429.703 176.378,405.703 157,371.5C 155.219,367.907 153.719,364.24 152.5,360.5C 152.672,358.508 152.005,356.842 150.5,355.5C 151.5,354.833 152.5,354.167 153.5,353.5C 152.975,352.808 152.308,352.308 151.5,352C 152.641,351.259 152.641,350.425 151.5,349.5C 150.335,348.416 149.002,347.583 147.5,347C 149.107,345.951 149.773,344.451 149.5,342.5C 148.022,342.762 146.689,342.429 145.5,341.5C 144.607,338.916 144.274,336.249 144.5,333.5C 146.201,333.034 147.701,333.034 149,333.5C 149.5,333 150,332.5 150.5,332C 145.413,331.06 144.746,329.227 148.5,326.5C 147.97,324.756 147.97,323.256 148.5,322C 149.742,321.689 150.742,322.189 151.5,323.5C 152.711,322.726 152.711,321.893 151.5,321C 151.88,318.674 152.88,316.841 154.5,315.5C 156.445,324.989 157.945,334.655 159,344.5C 159.704,342.273 160.871,341.94 162.5,343.5C 163.11,344.391 163.443,345.391 163.5,346.5C 163.187,349.247 163.52,351.914 164.5,354.5C 166.316,356.118 167.649,358.118 168.5,360.5C 174.138,361.33 179.804,361.83 185.5,362C 189.062,362.782 192.396,364.115 195.5,366C 196.089,367.873 195.422,369.54 193.5,371C 188.649,371.174 183.982,371.674 179.5,372.5C 178.475,372.897 178.308,373.563 179,374.5C 182.519,378.903 186.019,383.237 189.5,387.5C 195.442,396.15 202.942,397.817 212,392.5C 213.471,375.928 213.971,359.262 213.5,342.5C 213.5,342.167 213.5,341.833 213.5,341.5C 213.5,334.833 213.5,328.167 213.5,321.5C 212.833,317.833 212.167,314.167 211.5,310.5C 211.148,303.738 210.315,297.071 209,290.5C 208.5,283.508 208.334,276.508 208.5,269.5C 208.5,269.167 208.5,268.833 208.5,268.5C 211.079,262.554 212.413,256.22 212.5,249.5C 213.5,248.167 214.5,246.833 215.5,245.5C 215.481,247.06 215.148,248.56 214.5,250C 214.905,250.945 215.572,251.612 216.5,252C 215.333,253.167 214.167,254.333 213,255.5C 212.251,256.635 212.417,257.635 213.5,258.5C 215.053,257.561 216.387,256.394 217.5,255C 218.206,250.922 219.873,247.422 222.5,244.5C 220.222,250.273 218.555,256.273 217.5,262.5C 214.916,274.366 214.916,286.366 217.5,298.5C 217.294,301.495 217.96,304.162 219.5,306.5C 221.43,313.026 224.43,319.026 228.5,324.5C 229.956,329.293 232.623,333.293 236.5,336.5C 237.757,339.427 239.757,341.761 242.5,343.5C 248.631,349.404 255.631,354.071 263.5,357.5C 267.263,360.367 271.596,362.2 276.5,363C 301.827,369.405 325.827,366.238 348.5,353.5C 350.199,353.66 351.866,353.494 353.5,353C 360.575,346.227 368.075,338.393 376,329.5C 381.375,319.635 385.542,309.301 388.5,298.5C 388.376,297.893 388.043,297.56 387.5,297.5C 388.644,287.343 388.644,277.343 387.5,267.5C 387.044,264.094 386.378,260.761 385.5,257.5C 383.715,248.27 380.048,239.937 374.5,232.5C 372.5,229.5 370.5,226.5 368.5,223.5C 367.5,220.833 366.5,218.167 365.5,215.5C 367.988,215.683 369.988,216.683 371.5,218.5 Z"/></g>
<g><path style="opacity:1" fill="#fdba22" d="M 157.5,322.5 C 169.167,322.5 180.833,322.5 192.5,322.5C 187.684,323.326 182.684,323.826 177.5,324C 178.833,324.667 178.833,325.333 177.5,326C 179.878,326.974 179.544,327.641 176.5,328C 177.061,329.566 176.394,330.899 174.5,332C 174.833,332.333 175.167,332.667 175.5,333C 173.951,334.214 172.785,335.714 172,337.5C 171.086,336.346 170.253,336.513 169.5,338C 170.325,339.688 171.325,339.855 172.5,338.5C 182.628,339.144 192.628,339.811 202.5,340.5C 188.588,341.121 174.921,340.454 161.5,338.5C 159.541,333.331 158.208,327.998 157.5,322.5 Z"/></g>
<g><path style="opacity:1" fill="#fec31d" d="M 212.5,322.5 C 212.5,328.5 212.5,334.5 212.5,340.5C 209.167,340.5 205.833,340.5 202.5,340.5C 192.628,339.811 182.628,339.144 172.5,338.5C 171.325,339.855 170.325,339.688 169.5,338C 170.253,336.513 171.086,336.346 172,337.5C 172.785,335.714 173.951,334.214 175.5,333C 175.167,332.667 174.833,332.333 174.5,332C 176.394,330.899 177.061,329.566 176.5,328C 179.544,327.641 179.878,326.974 177.5,326C 178.833,325.333 178.833,324.667 177.5,324C 182.684,323.826 187.684,323.326 192.5,322.5C 199.19,322.178 205.857,322.178 212.5,322.5 Z"/></g>
<g><path style="opacity:1" fill="#0589c8" d="M 350.5,263.5 C 350.782,266.347 350.782,269.013 350.5,271.5C 350.833,271.833 351.167,272.167 351.5,272.5C 352.258,271.189 353.258,270.689 354.5,271C 353.5,272.667 352.167,274 350.5,275C 351.424,275.85 351.424,276.85 350.5,278C 352.559,279.498 353.892,281.498 354.5,284C 353.692,284.308 353.025,284.808 352.5,285.5C 355.648,293.039 355.982,300.539 353.5,308C 354.485,317.083 354.818,326.249 354.5,335.5C 354.586,336.496 354.252,337.329 353.5,338C 354.167,338.667 354.833,338.667 355.5,338C 359.731,333.938 363.731,329.771 367.5,325.5C 368.738,324.588 370.072,324.421 371.5,325C 369.393,326.264 368.393,328.097 368.5,330.5C 370.216,330.371 371.883,330.038 373.5,329.5C 368.871,335.797 363.538,341.463 357.5,346.5C 357.586,345.504 357.252,344.671 356.5,344C 358.863,343.411 359.863,341.911 359.5,339.5C 356.635,339.055 354.135,339.722 352,341.5C 351.383,340.551 351.549,339.718 352.5,339C 351.692,338.692 351.025,338.192 350.5,337.5C 350.846,336.304 351.346,336.304 352,337.5C 352.667,335.833 352.667,334.167 352,332.5C 349.828,333.509 348.662,335.176 348.5,337.5C 345.955,337.151 343.955,337.984 342.5,340C 343.5,340.333 344.5,340.667 345.5,341C 342.774,341.182 340.107,341.682 337.5,342.5C 338.689,343.429 340.022,343.762 341.5,343.5C 342.126,347.375 340.459,349.209 336.5,349C 338.211,350.133 338.711,351.633 338,353.5C 337.692,352.692 337.192,352.025 336.5,351.5C 325.133,357.176 313.133,360.009 300.5,360C 299.263,359.768 298.263,359.268 297.5,358.5C 310.323,359.255 322.323,356.588 333.5,350.5C 329.845,349.007 326.512,347.007 323.5,344.5C 322.984,342.8 321.984,341.467 320.5,340.5C 318.851,342.333 317.184,344 315.5,345.5C 305.502,347.329 298.335,343.663 294,334.5C 293.241,332.937 292.074,331.937 290.5,331.5C 290.167,330.5 289.5,329.833 288.5,329.5C 286.637,325.091 284.304,321.091 281.5,317.5C 280.386,316.115 279.386,314.615 278.5,313C 274.566,310.536 270.566,308.369 266.5,306.5C 262.871,303.69 259.371,300.023 256,295.5C 255.981,292.692 254.981,290.359 253,288.5C 252.503,286.19 252.337,283.857 252.5,281.5C 254.939,283.534 257.272,285.701 259.5,288C 265.246,289.434 270.579,291.767 275.5,295C 280.5,301.333 285.5,307.667 290.5,314C 296.394,317.155 302.394,317.321 308.5,314.5C 312.982,320.149 317.982,325.316 323.5,330C 327.167,330.667 330.833,330.667 334.5,330C 336.708,328.953 338.374,327.453 339.5,325.5C 340.79,324.942 341.623,323.942 342,322.5C 344.841,302.692 347.675,283.026 350.5,263.5 Z"/></g>
<g><path style="opacity:1" fill="#04ddc9" d="M 254.5,296.5 C 257.593,300.927 261.593,304.26 266.5,306.5C 270.566,308.369 274.566,310.536 278.5,313C 279.386,314.615 280.386,316.115 281.5,317.5C 281.798,320.265 282.798,322.765 284.5,325C 279.427,326.595 274.594,326.095 270,323.5C 269.333,326.167 268.667,326.167 268,323.5C 267.195,325.901 266.362,325.734 265.5,323C 264.5,322.667 263.5,322.333 262.5,322C 262.833,321.667 263.167,321.333 263.5,321C 262.197,320.79 260.864,320.957 259.5,321.5C 257.543,320.44 255.543,319.44 253.5,318.5C 252.808,319.025 252.308,319.692 252,320.5C 249.734,320.862 247.568,320.195 245.5,318.5C 243.319,319.121 240.986,319.121 238.5,318.5C 236.616,318.716 234.949,319.383 233.5,320.5C 232.522,320.023 231.689,319.357 231,318.5C 229.495,320.298 229.328,322.132 230.5,324C 229.906,324.464 229.239,324.631 228.5,324.5C 224.43,319.026 221.43,313.026 219.5,306.5C 219.5,305.5 219.5,304.5 219.5,303.5C 220.935,304.79 221.935,306.456 222.5,308.5C 222.338,306.369 223.671,305.369 226.5,305.5C 227.109,309.385 228.776,312.718 231.5,315.5C 231.56,316.043 231.893,316.376 232.5,316.5C 233.013,313.496 234.513,311.162 237,309.5C 245.476,312.269 254.31,313.769 263.5,314C 265.5,314.667 266.833,316 267.5,318C 268.833,318.333 270.167,318.667 271.5,319C 274.649,320.035 277.316,319.368 279.5,317C 277.807,314.048 275.974,313.882 274,316.5C 272.989,315.663 271.822,315.33 270.5,315.5C 270.657,314.127 270.49,312.793 270,311.5C 266.5,309.333 263,307.167 259.5,305C 257.137,302.494 255.47,299.661 254.5,296.5 Z"/></g>
<g><path style="opacity:1" fill="#04d0cb" d="M 356.5,282.5 C 356.833,282.5 357.167,282.5 357.5,282.5C 357.334,291.839 357.5,301.173 358,310.5C 358.419,309.328 359.085,308.328 360,307.5C 361,308.5 362,309.5 363,310.5C 363.308,309.692 363.808,309.025 364.5,308.5C 365.425,309.641 366.259,309.641 367,308.5C 368.306,311.984 369.139,315.318 369.5,318.5C 370.288,317.23 371.288,316.23 372.5,315.5C 370.833,318.833 369.167,322.167 367.5,325.5C 363.731,329.771 359.731,333.938 355.5,338C 354.833,338.667 354.167,338.667 353.5,338C 354.252,337.329 354.586,336.496 354.5,335.5C 356.058,318.024 356.724,300.357 356.5,282.5 Z"/></g>
<g><path style="opacity:1" fill="#160b46" d="M 256.5,261.5 C 254.496,262.673 252.996,264.34 252,266.5C 251.108,273.717 254.275,277.717 261.5,278.5C 267.326,280.226 272.993,282.559 278.5,285.5C 283.588,292.434 288.921,299.267 294.5,306C 297.119,307.696 299.786,307.863 302.5,306.5C 304.027,306.573 305.027,305.906 305.5,304.5C 310.5,310.5 315.5,316.5 320.5,322.5C 320.5,323.167 320.833,323.5 321.5,323.5C 325.803,327.134 330.47,327.467 335.5,324.5C 336.959,324.433 338.292,324.766 339.5,325.5C 338.374,327.453 336.708,328.953 334.5,330C 330.833,330.667 327.167,330.667 323.5,330C 317.982,325.316 312.982,320.149 308.5,314.5C 302.394,317.321 296.394,317.155 290.5,314C 285.5,307.667 280.5,301.333 275.5,295C 270.579,291.767 265.246,289.434 259.5,288C 257.272,285.701 254.939,283.534 252.5,281.5C 251.308,279.887 250.308,278.22 249.5,276.5C 247.739,271.084 248.405,266.084 251.5,261.5C 253.398,260.904 255.065,260.904 256.5,261.5 Z"/></g>
<g><path style="opacity:1" fill="#124f65" d="M 217.5,298.5 C 218.309,300.028 218.976,301.694 219.5,303.5C 219.5,304.5 219.5,305.5 219.5,306.5C 217.96,304.162 217.294,301.495 217.5,298.5 Z"/></g>
<g><path style="opacity:1" fill="#02d9cb" d="M 356.5,248.5 C 357.268,249.263 357.768,250.263 358,251.5C 358.333,264.5 358.667,277.5 359,290.5C 359.748,292.332 360.748,293.999 362,295.5C 364.473,294.88 366.973,294.214 369.5,293.5C 370.035,291.729 370.869,291.396 372,292.5C 374.168,290.545 376.502,289.879 379,290.5C 379.781,289.271 380.281,287.938 380.5,286.5C 380.321,281.328 380.321,275.995 380.5,270.5C 380.833,270.5 381.167,270.5 381.5,270.5C 381.5,277.833 381.5,285.167 381.5,292.5C 379.464,300.621 376.464,308.288 372.5,315.5C 371.288,316.23 370.288,317.23 369.5,318.5C 369.139,315.318 368.306,311.984 367,308.5C 366.259,309.641 365.425,309.641 364.5,308.5C 363.808,309.025 363.308,309.692 363,310.5C 362,309.5 361,308.5 360,307.5C 359.085,308.328 358.419,309.328 358,310.5C 357.5,301.173 357.334,291.839 357.5,282.5C 357.743,271.136 357.41,259.802 356.5,248.5 Z"/></g>
<g><path style="opacity:1" fill="#0597c1" d="M 249.5,276.5 C 250.308,278.22 251.308,279.887 252.5,281.5C 252.337,283.857 252.503,286.19 253,288.5C 254.981,290.359 255.981,292.692 256,295.5C 259.371,300.023 262.871,303.69 266.5,306.5C 261.593,304.26 257.593,300.927 254.5,296.5C 250.818,290.45 249.151,283.783 249.5,276.5 Z"/></g>
<g><path style="opacity:1" fill="#0c93cc" d="M 387.5,267.5 C 388.644,277.343 388.644,287.343 387.5,297.5C 384.587,308.897 379.92,319.563 373.5,329.5C 371.883,330.038 370.216,330.371 368.5,330.5C 368.393,328.097 369.393,326.264 371.5,325C 370.072,324.421 368.738,324.588 367.5,325.5C 369.167,322.167 370.833,318.833 372.5,315.5C 376.464,308.288 379.464,300.621 381.5,292.5C 382.426,286.898 383.593,281.232 385,275.5C 385.333,276.5 385.667,277.5 386,278.5C 386.879,275.179 387.379,271.513 387.5,267.5 Z"/></g>
<g><path style="opacity:1" fill="#2df6d0" d="M 229.5,255.5 C 229.5,256.833 229.5,258.167 229.5,259.5C 227.665,262.842 226.498,266.509 226,270.5C 223.929,285.84 226.096,300.506 232.5,314.5C 232.376,315.107 232.043,315.44 231.5,315.5C 228.776,312.718 227.109,309.385 226.5,305.5C 223.671,305.369 222.338,306.369 222.5,308.5C 221.935,306.456 220.935,304.79 219.5,303.5C 218.976,301.694 218.309,300.028 217.5,298.5C 214.916,286.366 214.916,274.366 217.5,262.5C 220.031,258.615 223.198,257.615 227,259.5C 227.608,257.934 228.442,256.6 229.5,255.5 Z"/></g>
<g><path style="opacity:1" fill="#edf9fc" d="M 336.5,251.5 C 327.766,269.301 318.766,286.967 309.5,304.5C 313.376,310.42 317.376,316.254 321.5,322C 321.272,322.399 320.938,322.565 320.5,322.5C 315.5,316.5 310.5,310.5 305.5,304.5C 314.665,287.344 323.998,270.177 333.5,253C 317.872,265.616 303.039,279.449 289,294.5C 291.155,301.155 295.655,305.155 302.5,306.5C 299.786,307.863 297.119,307.696 294.5,306C 288.921,299.267 283.588,292.434 278.5,285.5C 294.142,275.675 309.475,265.342 324.5,254.5C 326.698,252.902 329.031,251.569 331.5,250.5C 332.793,251.645 333.959,251.311 335,249.5C 335.278,250.416 335.778,251.082 336.5,251.5 Z"/></g>
<g><path style="opacity:1" fill="#5ac3f9" d="M 305.5,304.5 C 305.027,305.906 304.027,306.573 302.5,306.5C 295.655,305.155 291.155,301.155 289,294.5C 303.039,279.449 317.872,265.616 333.5,253C 323.998,270.177 314.665,287.344 305.5,304.5 Z"/></g>
<g><path style="opacity:1" fill="#2fa7f2" d="M 324.5,254.5 C 309.475,265.342 294.142,275.675 278.5,285.5C 272.993,282.559 267.326,280.226 261.5,278.5C 264.941,278.699 268.274,278.199 271.5,277C 282.114,272.635 292.447,267.802 302.5,262.5C 309.68,259.739 316.68,256.739 323.5,253.5C 324.107,253.624 324.44,253.957 324.5,254.5 Z"/></g>
<g><path style="opacity:1" fill="#09a5c8" d="M 385.5,257.5 C 386.378,260.761 387.044,264.094 387.5,267.5C 387.379,271.513 386.879,275.179 386,278.5C 385.667,277.5 385.333,276.5 385,275.5C 383.593,281.232 382.426,286.898 381.5,292.5C 381.5,285.167 381.5,277.833 381.5,270.5C 381.337,268.143 381.503,265.81 382,263.5C 383.776,261.789 384.942,259.789 385.5,257.5 Z"/></g>
<g><path style="opacity:1" fill="#badef3" d="M 331.5,250.5 C 329.031,251.569 326.698,252.902 324.5,254.5C 324.44,253.957 324.107,253.624 323.5,253.5C 316.68,256.739 309.68,259.739 302.5,262.5C 300.488,263.014 298.488,263.18 296.5,263C 308.901,257.615 321.234,252.615 333.5,248C 332.619,248.708 331.953,249.542 331.5,250.5 Z"/></g>
<g><path style="opacity:1" fill="#0592c6" d="M 352.5,244.5 C 353.042,247.65 354.209,250.65 356,253.5C 356.5,263.161 356.666,272.828 356.5,282.5C 356.724,300.357 356.058,318.024 354.5,335.5C 354.818,326.249 354.485,317.083 353.5,308C 355.982,300.539 355.648,293.039 352.5,285.5C 353.025,284.808 353.692,284.308 354.5,284C 353.892,281.498 352.559,279.498 350.5,278C 351.424,276.85 351.424,275.85 350.5,275C 352.167,274 353.5,272.667 354.5,271C 353.258,270.689 352.258,271.189 351.5,272.5C 351.167,272.167 350.833,271.833 350.5,271.5C 350.782,269.013 350.782,266.347 350.5,263.5C 351.427,257.197 352.094,250.863 352.5,244.5 Z"/></g>
<g><path style="opacity:1" fill="#0ebdc7" d="M 245.5,336.5 C 244.131,338.691 243.131,341.025 242.5,343.5C 239.757,341.761 237.757,339.427 236.5,336.5C 236.682,333.82 237.182,331.153 238,328.5C 239.798,330.972 242.132,332.639 245,333.5C 245.483,334.448 245.649,335.448 245.5,336.5 Z"/></g>
<g><path style="opacity:1" fill="#01d4c9" d="M 281.5,317.5 C 284.304,321.091 286.637,325.091 288.5,329.5C 289.428,332.523 290.762,335.357 292.5,338C 291.722,340.39 290.555,342.557 289,344.5C 288.667,343.833 288.333,343.167 288,342.5C 286.429,342.25 284.929,342.917 283.5,344.5C 281.575,344.41 280.408,343.41 280,341.5C 278.437,344.044 276.937,344.044 275.5,341.5C 273.36,342.106 271.193,341.773 269,340.5C 268.013,344.767 267.179,345.1 266.5,341.5C 263.402,341.413 263.068,341.913 265.5,343C 264.833,343.333 264.167,343.667 263.5,344C 264.451,344.718 264.617,345.551 264,346.5C 261.336,345.919 259.002,344.253 257,341.5C 256.667,341.833 256.333,342.167 256,342.5C 253.408,340.69 250.574,339.356 247.5,338.5C 247.167,337.5 246.5,336.833 245.5,336.5C 245.649,335.448 245.483,334.448 245,333.5C 242.132,332.639 239.798,330.972 238,328.5C 237.182,331.153 236.682,333.82 236.5,336.5C 232.623,333.293 229.956,329.293 228.5,324.5C 229.239,324.631 229.906,324.464 230.5,324C 229.328,322.132 229.495,320.298 231,318.5C 231.689,319.357 232.522,320.023 233.5,320.5C 234.949,319.383 236.616,318.716 238.5,318.5C 240.986,319.121 243.319,319.121 245.5,318.5C 247.568,320.195 249.734,320.862 252,320.5C 252.308,319.692 252.808,319.025 253.5,318.5C 255.543,319.44 257.543,320.44 259.5,321.5C 260.864,320.957 262.197,320.79 263.5,321C 263.167,321.333 262.833,321.667 262.5,322C 263.5,322.333 264.5,322.667 265.5,323C 266.362,325.734 267.195,325.901 268,323.5C 268.667,326.167 269.333,326.167 270,323.5C 274.594,326.095 279.427,326.595 284.5,325C 282.798,322.765 281.798,320.265 281.5,317.5 Z"/></g>
<g><path style="opacity:1" fill="#091142" d="M 387.5,297.5 C 388.043,297.56 388.376,297.893 388.5,298.5C 385.542,309.301 381.375,319.635 376,329.5C 368.075,338.393 360.575,346.227 353.5,353C 351.866,353.494 350.199,353.66 348.5,353.5C 351.681,351.408 354.681,349.075 357.5,346.5C 363.538,341.463 368.871,335.797 373.5,329.5C 379.92,319.563 384.587,308.897 387.5,297.5 Z"/></g>
<g><path style="opacity:1" fill="#3e211b" d="M 445.5,326.5 C 445.862,330.081 444.862,333.081 442.5,335.5C 442.69,332.145 443.69,329.145 445.5,326.5 Z"/></g>
<g><path style="opacity:1" fill="#0789cd" d="M 357.5,346.5 C 354.681,349.075 351.681,351.408 348.5,353.5C 325.827,366.238 301.827,369.405 276.5,363C 271.596,362.2 267.263,360.367 263.5,357.5C 265.541,357.146 267.374,357.146 269,357.5C 270.667,354.833 272.333,354.833 274,357.5C 275.343,356.786 276.676,357.12 278,358.5C 282.233,357.892 286.4,358.559 290.5,360.5C 292.657,359.95 294.657,359.283 296.5,358.5C 296.833,358.5 297.167,358.5 297.5,358.5C 298.263,359.268 299.263,359.768 300.5,360C 313.133,360.009 325.133,357.176 336.5,351.5C 337.192,352.025 337.692,352.692 338,353.5C 338.711,351.633 338.211,350.133 336.5,349C 340.459,349.209 342.126,347.375 341.5,343.5C 340.022,343.762 338.689,343.429 337.5,342.5C 340.107,341.682 342.774,341.182 345.5,341C 344.5,340.667 343.5,340.333 342.5,340C 343.955,337.984 345.955,337.151 348.5,337.5C 348.662,335.176 349.828,333.509 352,332.5C 352.667,334.167 352.667,335.833 352,337.5C 351.346,336.304 350.846,336.304 350.5,337.5C 351.025,338.192 351.692,338.692 352.5,339C 351.549,339.718 351.383,340.551 352,341.5C 354.135,339.722 356.635,339.055 359.5,339.5C 359.863,341.911 358.863,343.411 356.5,344C 357.252,344.671 357.586,345.504 357.5,346.5 Z"/></g>
<g><path style="opacity:1" fill="#1c0943" d="M 448.5,277.5 C 449.347,280.816 450.514,284.15 452,287.5C 452.308,286.692 452.808,286.025 453.5,285.5C 455.733,286.742 457.899,288.076 460,289.5C 461.828,287.597 461.661,285.764 459.5,284C 463.02,280.65 465.02,281.483 465.5,286.5C 466.445,291.805 466.445,297.139 465.5,302.5C 464.917,305.241 463.917,307.908 462.5,310.5C 463.393,313.084 463.726,315.751 463.5,318.5C 463.152,322.557 462.486,326.557 461.5,330.5C 459.724,333.343 458.057,336.343 456.5,339.5C 457.246,340.736 457.579,342.07 457.5,343.5C 457.396,345.703 456.73,347.703 455.5,349.5C 454.069,350.78 453.402,352.447 453.5,354.5C 446.478,373.843 435.478,390.51 420.5,404.5C 419.85,404.196 419.183,403.863 418.5,403.5C 415.111,408.366 411.778,408.199 408.5,403C 407.207,402.51 405.873,402.343 404.5,402.5C 404.672,400.508 404.005,398.842 402.5,397.5C 404.078,396.702 405.744,396.202 407.5,396C 410.414,393.129 413.748,390.796 417.5,389C 416.941,388.275 416.608,387.442 416.5,386.5C 418.6,384.636 419.933,382.303 420.5,379.5C 421.806,377.184 423.139,374.85 424.5,372.5C 421.092,371.98 417.759,370.98 414.5,369.5C 414.013,368.554 413.68,367.554 413.5,366.5C 414.187,364.823 414.854,363.156 415.5,361.5C 421.268,360.874 426.934,360.207 432.5,359.5C 438.53,353.1 441.863,345.433 442.5,336.5C 442.5,336.167 442.5,335.833 442.5,335.5C 444.862,333.081 445.862,330.081 445.5,326.5C 449.398,313.04 450.398,299.374 448.5,285.5C 448.5,284.833 448.5,284.167 448.5,283.5C 448.5,281.5 448.5,279.5 448.5,277.5 Z"/></g>
<g><path style="opacity:1" fill="#4e2745" d="M 461.5,330.5 C 460.537,335.049 459.204,339.383 457.5,343.5C 457.579,342.07 457.246,340.736 456.5,339.5C 458.057,336.343 459.724,333.343 461.5,330.5 Z"/></g>
<g><path style="opacity:1" fill="#280b30" d="M 154.5,309.5 C 155.402,313.758 156.402,318.091 157.5,322.5C 158.208,327.998 159.541,333.331 161.5,338.5C 161.263,339.791 161.596,340.791 162.5,341.5C 162.5,342.167 162.5,342.833 162.5,343.5C 160.871,341.94 159.704,342.273 159,344.5C 157.945,334.655 156.445,324.989 154.5,315.5C 154.5,313.5 154.5,311.5 154.5,309.5 Z"/></g>
<g><path style="opacity:1" fill="#f49648" d="M 213.5,321.5 C 213.5,328.167 213.5,334.833 213.5,341.5C 196.5,341.5 179.5,341.5 162.5,341.5C 161.596,340.791 161.263,339.791 161.5,338.5C 174.921,340.454 188.588,341.121 202.5,340.5C 205.833,340.5 209.167,340.5 212.5,340.5C 212.5,334.5 212.5,328.5 212.5,322.5C 212.5,321.833 212.833,321.5 213.5,321.5 Z"/></g>
<g><path style="opacity:1" fill="#02c8cb" d="M 288.5,329.5 C 289.5,329.833 290.167,330.5 290.5,331.5C 292.87,336.401 295.87,340.901 299.5,345C 303.007,346.558 306.673,347.392 310.5,347.5C 312.64,347.444 314.306,346.777 315.5,345.5C 317.184,344 318.851,342.333 320.5,340.5C 321.984,341.467 322.984,342.8 323.5,344.5C 324.426,347.095 326.093,349.095 328.5,350.5C 327.24,351.382 326.074,352.382 325,353.5C 324.667,353.167 324.333,352.833 324,352.5C 320.466,354.493 316.633,355.827 312.5,356.5C 304.807,357.095 296.974,357.095 289,356.5C 283.604,355.363 278.437,353.697 273.5,351.5C 272.893,351.624 272.56,351.957 272.5,352.5C 268.188,351.845 264.188,350.345 260.5,348C 256.006,344.999 251.673,341.832 247.5,338.5C 250.574,339.356 253.408,340.69 256,342.5C 256.333,342.167 256.667,341.833 257,341.5C 259.002,344.253 261.336,345.919 264,346.5C 264.617,345.551 264.451,344.718 263.5,344C 264.167,343.667 264.833,343.333 265.5,343C 263.068,341.913 263.402,341.413 266.5,341.5C 267.179,345.1 268.013,344.767 269,340.5C 271.193,341.773 273.36,342.106 275.5,341.5C 276.937,344.044 278.437,344.044 280,341.5C 280.408,343.41 281.575,344.41 283.5,344.5C 284.929,342.917 286.429,342.25 288,342.5C 288.333,343.167 288.667,343.833 289,344.5C 290.555,342.557 291.722,340.39 292.5,338C 290.762,335.357 289.428,332.523 288.5,329.5 Z"/></g>
<g><path style="opacity:1" fill="#08abca" d="M 290.5,331.5 C 292.074,331.937 293.241,332.937 294,334.5C 298.335,343.663 305.502,347.329 315.5,345.5C 314.306,346.777 312.64,347.444 310.5,347.5C 306.673,347.392 303.007,346.558 299.5,345C 295.87,340.901 292.87,336.401 290.5,331.5 Z"/></g>
<g><path style="opacity:1" fill="#e57d3c" d="M 394.5,321.5 C 410.675,321.17 426.675,321.504 442.5,322.5C 438.833,322.5 435.167,322.5 431.5,322.5C 419.5,322.5 407.5,322.5 395.5,322.5C 395.5,328.5 395.5,334.5 395.5,340.5C 408.5,340.5 421.5,340.5 434.5,340.5C 436.5,340.5 438.5,340.5 440.5,340.5C 440.5,341.167 440.167,341.5 439.5,341.5C 424.5,341.5 409.5,341.5 394.5,341.5C 394.5,335.167 394.5,328.833 394.5,322.5C 394.5,322.167 394.5,321.833 394.5,321.5 Z"/></g>
<g><path style="opacity:1" fill="#fb3564" d="M 162.5,341.5 C 179.5,341.5 196.5,341.5 213.5,341.5C 213.5,341.833 213.5,342.167 213.5,342.5C 212.504,356.99 212.171,371.657 212.5,386.5C 204.648,386.175 196.982,386.508 189.5,387.5C 186.019,383.237 182.519,378.903 179,374.5C 178.308,373.563 178.475,372.897 179.5,372.5C 184.511,372.666 189.511,372.499 194.5,372C 198.693,367.683 198.36,363.85 193.5,360.5C 186.345,359.671 179.011,359.171 171.5,359C 169.85,355.515 167.85,352.349 165.5,349.5C 165.068,348.29 164.401,347.29 163.5,346.5C 163.443,345.391 163.11,344.391 162.5,343.5C 162.5,342.833 162.5,342.167 162.5,341.5 Z"/></g>
<g><path style="opacity:1" fill="#fb3564" d="M 394.5,341.5 C 409.5,341.5 424.5,341.5 439.5,341.5C 438.331,348.017 435.997,354.017 432.5,359.5C 426.934,360.207 421.268,360.874 415.5,361.5C 410.497,364.241 410.164,367.741 414.5,372C 417.817,372.498 421.15,372.665 424.5,372.5C 423.139,374.85 421.806,377.184 420.5,379.5C 418.167,381.833 415.833,384.167 413.5,386.5C 393.167,386.5 372.833,386.5 352.5,386.5C 350.618,380.833 352.618,376.999 358.5,375C 368.833,374.667 379.167,374.333 389.5,374C 391.382,373.802 393.048,373.302 394.5,372.5C 394.5,362.167 394.5,351.833 394.5,341.5 Z"/></g>
<g><path style="opacity:1" fill="#0790cb" d="M 245.5,336.5 C 246.5,336.833 247.167,337.5 247.5,338.5C 251.673,341.832 256.006,344.999 260.5,348C 264.188,350.345 268.188,351.845 272.5,352.5C 273.347,353.966 274.68,354.8 276.5,355C 283.042,356.924 289.709,358.09 296.5,358.5C 294.657,359.283 292.657,359.95 290.5,360.5C 286.4,358.559 282.233,357.892 278,358.5C 276.676,357.12 275.343,356.786 274,357.5C 272.333,354.833 270.667,354.833 269,357.5C 267.374,357.146 265.541,357.146 263.5,357.5C 255.631,354.071 248.631,349.404 242.5,343.5C 243.131,341.025 244.131,338.691 245.5,336.5 Z"/></g>
<g><path style="opacity:1" fill="#430934" d="M 442.5,336.5 C 441.863,345.433 438.53,353.1 432.5,359.5C 435.997,354.017 438.331,348.017 439.5,341.5C 440.167,341.5 440.5,341.167 440.5,340.5C 440.989,339.005 441.655,337.671 442.5,336.5 Z"/></g>
<g><path style="opacity:0.4" fill="#7f444a" d="M 455.5,349.5 C 455.598,351.553 454.931,353.22 453.5,354.5C 453.402,352.447 454.069,350.78 455.5,349.5 Z"/></g>
<g><path style="opacity:1" fill="#08bacf" d="M 323.5,344.5 C 326.512,347.007 329.845,349.007 333.5,350.5C 322.323,356.588 310.323,359.255 297.5,358.5C 297.167,358.5 296.833,358.5 296.5,358.5C 289.709,358.09 283.042,356.924 276.5,355C 274.68,354.8 273.347,353.966 272.5,352.5C 272.56,351.957 272.893,351.624 273.5,351.5C 278.437,353.697 283.604,355.363 289,356.5C 296.974,357.095 304.807,357.095 312.5,356.5C 316.633,355.827 320.466,354.493 324,352.5C 324.333,352.833 324.667,353.167 325,353.5C 326.074,352.382 327.24,351.382 328.5,350.5C 326.093,349.095 324.426,347.095 323.5,344.5 Z"/></g>
<g><path style="opacity:1" fill="#db4f77" d="M 165.5,349.5 C 167.85,352.349 169.85,355.515 171.5,359C 179.011,359.171 186.345,359.671 193.5,360.5C 185.826,360.666 178.159,360.5 170.5,360C 168.421,356.676 166.754,353.176 165.5,349.5 Z"/></g>
<g><path style="opacity:1" fill="#300531" d="M 163.5,346.5 C 164.401,347.29 165.068,348.29 165.5,349.5C 166.754,353.176 168.421,356.676 170.5,360C 178.159,360.5 185.826,360.666 193.5,360.5C 198.36,363.85 198.693,367.683 194.5,372C 189.511,372.499 184.511,372.666 179.5,372.5C 183.982,371.674 188.649,371.174 193.5,371C 195.422,369.54 196.089,367.873 195.5,366C 192.396,364.115 189.062,362.782 185.5,362C 179.804,361.83 174.138,361.33 168.5,360.5C 167.649,358.118 166.316,356.118 164.5,354.5C 163.52,351.914 163.187,349.247 163.5,346.5 Z"/></g>
<g><path style="opacity:1" fill="#3d0732" d="M 415.5,361.5 C 414.854,363.156 414.187,364.823 413.5,366.5C 413.68,367.554 414.013,368.554 414.5,369.5C 417.759,370.98 421.092,371.98 424.5,372.5C 421.15,372.665 417.817,372.498 414.5,372C 410.164,367.741 410.497,364.241 415.5,361.5 Z"/></g>
<g><path style="opacity:1" fill="#180440" d="M 349.5,379.5 C 349.789,382.649 349.289,385.649 348,388.5C 347.577,387.044 346.744,386.544 345.5,387C 346.227,388.399 346.727,389.899 347,391.5C 349.468,391.869 351.635,393.369 353.5,396C 353.167,397 352.833,398 352.5,399C 358.989,402.118 358.323,403.951 350.5,404.5C 352.071,407.023 351.571,409.023 349,410.5C 345.549,422.824 350.049,427.991 362.5,426C 365.5,425 368.5,424 371.5,423C 373.063,422.241 374.063,421.074 374.5,419.5C 375.659,417.75 377.326,416.75 379.5,416.5C 384.1,415.427 388.433,413.594 392.5,411C 393.126,410.25 393.626,409.416 394,408.5C 394.419,409.672 395.085,410.672 396,411.5C 397.101,409.606 398.434,408.939 400,409.5C 400.667,410.833 400.667,412.167 400,413.5C 399.577,412.044 398.744,411.544 397.5,412C 398.815,413.395 398.481,414.395 396.5,415C 397.167,415.333 397.833,415.667 398.5,416C 397.54,417.419 396.707,418.919 396,420.5C 393.973,420.014 391.807,420.014 389.5,420.5C 389.567,422.401 389.233,424.234 388.5,426C 389.429,427.077 390.096,428.244 390.5,429.5C 363.669,446.161 334.335,454.661 302.5,455C 281.135,475.015 255.802,485.015 226.5,485C 225.978,484.439 225.645,483.772 225.5,483C 230.874,475.761 236.374,468.594 242,461.5C 243.984,457.531 245.984,453.531 248,449.5C 248.749,448.365 248.583,447.365 247.5,446.5C 245.473,445.487 243.473,444.487 241.5,443.5C 240.342,442.05 240.842,441.05 243,440.5C 244.808,442.843 246.974,443.51 249.5,442.5C 248.012,440.423 246.012,439.423 243.5,439.5C 244.635,436.511 244.802,433.511 244,430.5C 245.667,430.5 247.333,430.5 249,430.5C 250.889,432.719 253.056,433.553 255.5,433C 253.604,434.808 253.104,436.975 254,439.5C 255.688,438.675 255.855,437.675 254.5,436.5C 255.274,435.289 256.107,435.289 257,436.5C 257.333,435.5 257.667,434.5 258,433.5C 258.92,433.07 259.753,432.736 260.5,432.5C 258.729,431.012 257.396,429.179 256.5,427C 259.544,426.641 259.878,425.974 257.5,425C 259.507,423.287 261.507,421.621 263.5,420C 263,419.5 262.5,419 262,418.5C 260.984,419.634 260.317,419.301 260,417.5C 257.626,419.94 255.459,419.606 253.5,416.5C 252.833,416.833 252.167,417.167 251.5,417.5C 250.177,408.027 250.344,398.361 252,388.5C 251.791,392.459 253.625,394.126 257.5,393.5C 257.789,389.894 257.456,386.394 256.5,383C 258.049,383.344 259.716,383.844 261.5,384.5C 263.067,384.523 264.4,384.023 265.5,383C 258.533,383.366 256.033,380.199 258,373.5C 264.835,369.514 268.002,371.514 267.5,379.5C 268.833,379.5 270.167,379.5 271.5,379.5C 271.351,378.448 271.517,377.448 272,376.5C 272.333,376.833 272.667,377.167 273,377.5C 274.851,375.219 276.518,375.219 278,377.5C 280.099,376.534 281.932,375.2 283.5,373.5C 284.086,373.709 284.586,374.043 285,374.5C 285.29,372.956 285.956,371.623 287,370.5C 289.198,372.482 290.698,374.482 291.5,376.5C 292.478,376.023 293.311,375.357 294,374.5C 294.333,374.833 294.667,375.167 295,375.5C 296.734,374.751 298.567,374.251 300.5,374C 299.167,373 299.167,372 300.5,371C 296.599,368.704 296.932,368.204 301.5,369.5C 301.968,371.134 302.968,372.3 304.5,373C 303.552,373.483 302.552,373.649 301.5,373.5C 301.281,374.675 301.614,375.675 302.5,376.5C 302.833,375.833 303.167,375.167 303.5,374.5C 304.192,375.025 304.692,375.692 305,376.5C 305.667,373.833 306.333,373.833 307,376.5C 311.572,374.108 316.072,374.108 320.5,376.5C 320.489,375.559 320.989,374.892 322,374.5C 323.011,374.892 323.511,375.559 323.5,376.5C 324.941,375.135 326.274,373.635 327.5,372C 325.714,371.804 324.381,370.971 323.5,369.5C 325.019,370.017 326.352,369.35 327.5,367.5C 327.296,368.529 327.796,369.529 329,370.5C 330.183,369.269 331.349,369.269 332.5,370.5C 331.145,371.675 331.312,372.675 333,373.5C 334.356,372.62 335.856,372.286 337.5,372.5C 337.5,373.5 337.5,374.5 337.5,375.5C 336.325,375.281 335.325,375.614 334.5,376.5C 334.833,376.833 335.167,377.167 335.5,377.5C 338.378,375.894 341.378,374.561 344.5,373.5C 346.185,375.571 347.852,377.571 349.5,379.5 Z"/></g>
<g><path style="opacity:1" fill="#390626" d="M 394.5,322.5 C 394.5,328.833 394.5,335.167 394.5,341.5C 394.5,351.833 394.5,362.167 394.5,372.5C 382.5,372.5 370.5,372.5 358.5,372.5C 369.988,371.505 381.655,371.172 393.5,371.5C 393.17,354.991 393.504,338.658 394.5,322.5 Z"/></g>
<g><path style="opacity:1" fill="#e43b6a" d="M 357.5,372.5 C 357.833,372.5 358.167,372.5 358.5,372.5C 370.5,372.5 382.5,372.5 394.5,372.5C 393.048,373.302 391.382,373.802 389.5,374C 379.167,374.333 368.833,374.667 358.5,375C 352.618,376.999 350.618,380.833 352.5,386.5C 353.1,389.349 354.433,391.682 356.5,393.5C 353.909,392.746 352.076,391.079 351,388.5C 350.333,385.167 350.333,381.833 351,378.5C 353.063,376.266 355.229,374.266 357.5,372.5 Z"/></g>
<g><path style="opacity:1" fill="#405b96" d="M 260.5,372.5 C 266.661,372.943 267.995,375.777 264.5,381C 259.504,381.664 257.67,379.498 259,374.5C 259.717,373.956 260.217,373.289 260.5,372.5 Z"/></g>
<g><path style="opacity:1" fill="#485c94" d="M 281.5,377.5 C 283.39,377.297 284.89,377.963 286,379.5C 286.667,385.833 286.667,392.167 286,398.5C 284.267,400.602 282.267,400.935 280,399.5C 279.333,392.833 279.333,386.167 280,379.5C 280.717,378.956 281.217,378.289 281.5,377.5 Z"/></g>
<g><path style="opacity:1" fill="#405e9a" d="M 242.5,382.5 C 244.144,382.286 245.644,382.62 247,383.5C 247.833,396.846 247.666,410.179 246.5,423.5C 244.958,424.747 243.458,424.747 242,423.5C 241.186,409.758 241.353,396.092 242.5,382.5 Z"/></g>
<g><path style="opacity:1" fill="#ec2473" d="M 213.5,342.5 C 213.971,359.262 213.471,375.928 212,392.5C 202.942,397.817 195.442,396.15 189.5,387.5C 196.982,386.508 204.648,386.175 212.5,386.5C 212.171,371.657 212.504,356.99 213.5,342.5 Z"/></g>
<g><path style="opacity:1" fill="#395391" d="M 309.5,390.5 C 312.93,389.755 314.597,391.089 314.5,394.5C 309.547,418.576 298.214,439.076 280.5,456C 276.105,457.95 274.271,456.45 275,451.5C 283.469,443.37 290.802,434.37 297,424.5C 302.081,413.417 306.247,402.084 309.5,390.5 Z"/></g>
<g><path style="opacity:1" fill="#1e053c" d="M 357.5,372.5 C 355.229,374.266 353.063,376.266 351,378.5C 350.333,381.833 350.333,385.167 351,388.5C 352.076,391.079 353.909,392.746 356.5,393.5C 356.918,394.222 357.584,394.722 358.5,395C 374.5,395.667 390.5,395.667 406.5,395C 408.698,391.977 411.031,389.144 413.5,386.5C 415.833,384.167 418.167,381.833 420.5,379.5C 419.933,382.303 418.6,384.636 416.5,386.5C 416.608,387.442 416.941,388.275 417.5,389C 413.748,390.796 410.414,393.129 407.5,396C 405.744,396.202 404.078,396.702 402.5,397.5C 404.005,398.842 404.672,400.508 404.5,402.5C 405.873,402.343 407.207,402.51 408.5,403C 411.778,408.199 415.111,408.366 418.5,403.5C 419.183,403.863 419.85,404.196 420.5,404.5C 411.693,414.311 401.693,422.644 390.5,429.5C 390.096,428.244 389.429,427.077 388.5,426C 389.233,424.234 389.567,422.401 389.5,420.5C 391.807,420.014 393.973,420.014 396,420.5C 396.707,418.919 397.54,417.419 398.5,416C 397.833,415.667 397.167,415.333 396.5,415C 398.481,414.395 398.815,413.395 397.5,412C 398.744,411.544 399.577,412.044 400,413.5C 400.667,412.167 400.667,410.833 400,409.5C 398.434,408.939 397.101,409.606 396,411.5C 395.085,410.672 394.419,409.672 394,408.5C 393.626,409.416 393.126,410.25 392.5,411C 388.433,413.594 384.1,415.427 379.5,416.5C 382.681,414.408 385.681,412.075 388.5,409.5C 389.756,409.539 390.756,409.039 391.5,408C 385.5,407.833 379.5,407.667 373.5,407.5C 366.731,407.371 360.064,407.871 353.5,409C 348.689,413.791 348.356,418.791 352.5,424C 356.69,426.036 360.69,425.869 364.5,423.5C 367.833,422.167 371.167,420.833 374.5,419.5C 374.063,421.074 373.063,422.241 371.5,423C 368.5,424 365.5,425 362.5,426C 350.049,427.991 345.549,422.824 349,410.5C 351.571,409.023 352.071,407.023 350.5,404.5C 358.323,403.951 358.989,402.118 352.5,399C 352.833,398 353.167,397 353.5,396C 351.635,393.369 349.468,391.869 347,391.5C 346.727,389.899 346.227,388.399 345.5,387C 346.744,386.544 347.577,387.044 348,388.5C 349.289,385.649 349.789,382.649 349.5,379.5C 350.146,374.845 352.813,372.512 357.5,372.5 Z"/></g>
<g><path style="opacity:1" fill="#ee0c6b" d="M 352.5,386.5 C 372.833,386.5 393.167,386.5 413.5,386.5C 411.031,389.144 408.698,391.977 406.5,395C 390.5,395.667 374.5,395.667 358.5,395C 357.584,394.722 356.918,394.222 356.5,393.5C 354.433,391.682 353.1,389.349 352.5,386.5 Z"/></g>
<g><path style="opacity:1" fill="#39528c" d="M 330.5,393.5 C 332.144,393.286 333.644,393.62 335,394.5C 334.227,404.488 331.227,413.822 326,422.5C 320.934,425.894 318.934,424.56 320,418.5C 321.92,415.661 323.587,412.661 325,409.5C 326.345,403.962 328.179,398.629 330.5,393.5 Z"/></g>
<g><path style="opacity:1" fill="#c10b66" d="M 388.5,409.5 C 385.681,412.075 382.681,414.408 379.5,416.5C 377.326,416.75 375.659,417.75 374.5,419.5C 371.167,420.833 367.833,422.167 364.5,423.5C 357.346,426.389 352.679,424.222 350.5,417C 350.903,414.113 352.236,411.779 354.5,410C 360.395,408.876 366.395,408.376 372.5,408.5C 378.011,408.501 383.344,408.834 388.5,409.5 Z"/></g>
<g><path style="opacity:1" fill="#a01964" d="M 388.5,409.5 C 383.344,408.834 378.011,408.501 372.5,408.5C 366.395,408.376 360.395,408.876 354.5,410C 352.236,411.779 350.903,414.113 350.5,417C 352.679,424.222 357.346,426.389 364.5,423.5C 360.69,425.869 356.69,426.036 352.5,424C 348.356,418.791 348.689,413.791 353.5,409C 360.064,407.871 366.731,407.371 373.5,407.5C 379.5,407.667 385.5,407.833 391.5,408C 390.756,409.039 389.756,409.539 388.5,409.5 Z"/></g>
<g><path style="opacity:1" fill="#3a5594" d="M 270.5,415.5 C 273.05,415.884 274.383,417.384 274.5,420C 272.109,432.778 266.776,444.112 258.5,454C 256.866,454.494 255.199,454.66 253.5,454.5C 253.34,452.801 253.506,451.134 254,449.5C 261.097,440.302 265.764,429.969 268,418.5C 269.045,417.627 269.878,416.627 270.5,415.5 Z"/></g>
</svg>
